/* XPM */
static char *_7eed780451b49a9bc98ee241e7afc50uPEY5UR4U2UJmp0X[] = {
/* columns rows colors chars-per-pixel */
"64 64 250 2 ",
"   c None",
".  c #331206",
"X  c #491A08",
"o  c #59240D",
"O  c #66260A",
"+  c #772B0A",
"@  c #783411",
"#  c #6A3B2F",
"$  c #7F4638",
"%  c #7E4319",
"&  c #0E3C77",
"*  c #3C5678",
"=  c #725753",
"-  c #78635F",
";  c #505A68",
":  c #767069",
">  c #655C6B",
",  c #88360C",
"<  c #9B3B0C",
"1  c #97350A",
"2  c #833B14",
"3  c #95330C",
"4  c #A62D06",
"5  c #A6350A",
"6  c #B73B08",
"7  c #88321A",
"8  c #C33E07",
"9  c #984817",
"0  c #944716",
"q  c #AA450D",
"w  c #B3440C",
"e  c #BA490D",
"r  c #A44B14",
"t  c #A84916",
"y  c #B84A12",
"u  c #A95418",
"i  c #BC5512",
"p  c #B55717",
"a  c #BC530F",
"s  c #B9641D",
"d  c #934E2D",
"f  c #AD5524",
"g  c #B86727",
"h  c #AF6E38",
"j  c #C44C0C",
"k  c #C84909",
"l  c #D24F0A",
"z  c #CC540C",
"x  c #C6550D",
"c  c #D4550C",
"v  c #D45B0E",
"b  c #DB5C0C",
"n  c #CD5D12",
"m  c #C65915",
"M  c #D25D11",
"N  c #DC630E",
"B  c #D7620F",
"V  c #CE6314",
"C  c #C7671A",
"Z  c #D46413",
"A  c #D46A14",
"S  c #DB6B14",
"D  c #D66817",
"F  c #DC7216",
"G  c #DC741B",
"H  c #D8771C",
"J  c #CC731D",
"K  c #E36D12",
"L  c #E36710",
"P  c #E47415",
"I  c #E57B16",
"U  c #EA7B14",
"Y  c #E47C1A",
"T  c #E87916",
"R  c #E36D0D",
"E  c #C45F26",
"W  c #C56825",
"Q  c #CA7428",
"!  c #D47926",
"~  c #D37733",
"^  c #E27E2C",
"/  c #8E6C51",
"(  c #B0704A",
")  c #B17C66",
"_  c #805F48",
"`  c #7D8C7F",
"'  c #ED8216",
"]  c #E5821C",
"[  c #EB8419",
"{  c #ED8B1B",
"}  c #E68318",
"|  c #F28C1A",
" . c #F28816",
".. c #F2931D",
"X. c #F69A1C",
"o. c #EF921A",
"O. c #F8A618",
"+. c #DB8528",
"@. c #D98836",
"#. c #D08A37",
"$. c #EA8C22",
"%. c #E48722",
"&. c #EC9323",
"*. c #EC9A29",
"=. c #F39B23",
"-. c #F39823",
";. c #E49836",
":. c #E08C30",
">. c #EEA52B",
",. c #F5A324",
"<. c #F6A929",
"1. c #F8B52C",
"2. c #F3AE36",
"3. c #DC801D",
"4. c #BA8651",
"5. c #8E816D",
"6. c #B58D6F",
"7. c #B9A773",
"8. c #CD8E4E",
"9. c #E19C4E",
"0. c #DEA158",
"q. c #EAAB50",
"w. c #CE966B",
"e. c #D2A675",
"r. c #E6AD6E",
"t. c #3B5E81",
"y. c #346D95",
"u. c #377BAC",
"i. c #2772AD",
"p. c #1762A2",
"a. c #4A7390",
"s. c #647581",
"d. c #467EAC",
"f. c #3C85B7",
"g. c #3085BB",
"h. c #5D849A",
"j. c #71888F",
"k. c #518EB6",
"l. c #6593B6",
"z. c #749AAF",
"x. c #7FAABE",
"c. c #3892C5",
"v. c #489AC9",
"b. c #599CC4",
"n. c #438FC2",
"m. c #689EC5",
"M. c #49A3CF",
"N. c #59A4CC",
"B. c #57ACD5",
"V. c #58B4DB",
"C. c #47AFD9",
"Z. c #69A5C9",
"A. c #78AACA",
"S. c #68ABD2",
"D. c #6AB4D8",
"F. c #79B7D7",
"G. c #76ADCF",
"H. c #5ABDE2",
"J. c #6CBEE1",
"K. c #59C2E5",
"L. c #68C4E5",
"P. c #78C8E6",
"I. c #7DD1EC",
"U. c #7FC0DD",
"Y. c #8C8A83",
"T. c #B5A68E",
"R. c #A5AFB0",
"E. c #8EA4A3",
"W. c #CFB295",
"Q. c #E4B891",
"!. c #CDBBAE",
"~. c #E2BFA3",
"^. c #BDC2AF",
"/. c #D0C7BB",
"(. c #E9C7A7",
"). c #E8CCB9",
"_. c #EDD4B7",
"`. c #F1C89A",
"'. c #8BB5CD",
"]. c #89BAD6",
"[. c #95BCD6",
"{. c #91B2C9",
"}. c #A6BBC9",
"|. c #89C2DD",
" X c #98C4DC",
".X c #A7C8DA",
"XX c #B1CBD1",
"oX c #8AC8E3",
"OX c #9BCCE2",
"+X c #93CAE3",
"@X c #87D3EB",
"#X c #95D4EA",
"$X c #9BDAED",
"%X c #97D6EA",
"&X c #9EDCF0",
"*X c #A3CDE3",
"=X c #ACCFE3",
"-X c #A4D2E6",
";X c #ACD4E5",
":X c #A3DBEE",
">X c #ABDDEE",
",X c #A7D6E9",
"<X c #B3DCEC",
"1X c #BBDCEA",
"2X c #B7D7E5",
"3X c #A8DDF1",
"4X c #ADD4EB",
"5X c #BCE1EE",
"6X c #B4E0EF",
"7X c #ACE1F0",
"8X c #B3E2F1",
"9X c #BCE4F2",
"0X c #ABE0EF",
"qX c #D4D2D0",
"wX c #EBD8C8",
"eX c #E5DDD9",
"rX c #F3DCC7",
"tX c #F2E2CF",
"yX c #F3E6D7",
"uX c #E7E2DE",
"iX c #C3DDE9",
"pX c #C6DBE6",
"aX c #C4E2ED",
"sX c #CCE3ED",
"dX c #D5E6EC",
"fX c #C3E6F2",
"gX c #CAE6F1",
"hX c #C4E8F3",
"jX c #CCEAF4",
"kX c #C6EEFC",
"lX c #D4ECF4",
"zX c #DBEDF4",
"xX c #D5EBF5",
"cX c #DDF1F6",
"vX c #DEF1F8",
"bX c #D6F3FA",
"nX c #CBF5FE",
"mX c #ECEAE8",
"MX c #F5F1ED",
"NX c #F9F3EC",
"BX c #E3EEF3",
"VX c #E3F2F7",
"CX c #E3F3F9",
"ZX c #EBF6FA",
"AX c #EEF9FB",
"SX c #EAF4F8",
"DX c #F3FAFC",
"FX c #FDFEFD",
"GX c #F7F6F4",
"HX c #F5ECE5",
/* pixels */
"                                                    FXFX                                                                        ",
"                                                FXFXFXGXFX                                                                      ",
"                                                FXDXqXeXFXFXFX                                                                  ",
"                                    FXFXFXFXFXFXFXMXwXuXmXGXFX                                                                  ",
"                                  FXFXMXMXGXMXmXmXmXwXqXeXGXFX                                                                  ",
"                                FXFXNXr.e.) ) w.6.T.!.qXmXMXFX                                                                  ",
"                                FXGX`.$.M 4 t w.!.qX!.uXFXFXFX                                                                  ",
"                              FXFX_.&.P L j m T.!.uXeXmXMXFXFX                                                                  ",
"                              FXyXq.U N L c e E w.qXqXeXNXFXFXFXFXFXFXFXFXFXFXFX                                                ",
"                            FXFX(.$.b c c c m n E ) 6.) T.}.{.'.[. X X.XpXSXFXFXFXFXFX                                          ",
"                            FXeX( +.T P N b b Z f - d.a.u.u.b.U.OX:X,X*X|.S.|.<XdXDXFXFXFX                                      ",
"                          FXFXwX7 t S S N b f - h.D.L.H.J.J.D.D.D.S.S.oX@X@XP.V.v.A.pXGXFXFXFX                                  ",
"                    FXFXFXFXGXwX( j c L c _ t.M.P.J.L.P. XOXF.N.c.c.c.v.B.H.H.I.oXM.i.l.2XDXFXDX                                ",
"                  FXFXFXtX`.0.^ P T U ~ : f.H.I.@X#X9XjXlXlXhX7X,X3X8X3X<X<XoXL.@X@XK.c.k.{.mXFXFXFX                            ",
"                FXFXGX(.~ M l 8 k c n j.S.P.I.%XfXxX8X9XjXjXhX0X%X8XxXjXkXxXgX9X&X@X@X#X+X].{.pXGXFXFX                          ",
"            FXFXFX_.r.^ L c k 6 4 5 > D.I.H.#XxXxXjX>X9XhX8X6X5X9X8X9XhXaXgX9X9X3X%XP.&XbXvXiX.XXXdXFXFXFX                      ",
"            FXGX~.E L U U L l 8 6 $ G.&XV.oXgXjXjXlX8X9X8X0X$X0X9XhX8XhXlXlXcXvXcXaXD.N. XsXlXvXiX.XpXDXFXFX                    ",
"            FX_.f 4 b T L b l 6 4 s.4XS.c.,XkXfXlX9X&X0X,X@X$X$X9X9X$X$XlXvXlX5XaXaXaX2XXXz.[.aXxXxX;X2XFXFXGX                  ",
"          FXFX).f 8 N D L c 6 4 7 l.4Xc.M.9XfXfXjX9X9X0XR.5.W.e.W./.2X X X2XhX-X;X}.}.=XsXcXsX6X:XjXzX<XsXFXFX                  ",
"          FXHX) 5 6 Y T b k 6 k _ m.J.n.OX3X3XfX8X0X9X>X7.+.9.;.+.#.!.5X>X+X X9XvXzX2X;X5XcXAXvXlXlXCXSX1XaXFXFX                ",
"        FXFX).f 6 j $.T b k m 6 ; B.B.*XfX9XfX8X:X7XhXpX0.;.q.q.2.#.8.XX7X9X9XnXjXjX8X9XcXcXCXVXZXCXVXAX5X XFXFX                ",
"      FXFXGXw.j j v P L c 6 8 t a.L.J.gXxXfX3X3X:X,X9X/.;.2.q.q.q.+.g E.@X$X7X9XjXlXhX0X2XdXVXCXCXcXlXAXlX,XSXFXFX              ",
"    FXGXrXe.m 6 G P P T c 8 b g k.J.P.jXkX9X3X3X8X%X|.XX8.;.q.q.;.! s j.C.L.@X$X8XjXbX>X|.6XVXVXvXhXhXvXvXlXsXDXFX              ",
"    FXyX~ e k S %.Y D K b l L W h.P.oXjXjX9X3X3X9X9X-X].R.4.#.:.@.W 5.'.S.M.V.K.I.:XhXlX,XS.-XcXCXaX5XdXZXDXlXaXFXFX            ",
"    FXyX~ z j x n m 6 k L l L ! s.P.&X9XxX9X8X8X9X7X9X9X+XR.!.W.W.W.R.9XbXnX9X$XI.L.P.>XxX XG.hXCXSXsX2XzXDXVXaXDXFXGX          ",
"    FXtX+.U P n p V n S  .P L z = v.I.#XjXgXhXgXjX7X:X9XjXjX5X,X8XbXvXlX8X8X8X8XfX9XF.M.P.OX X XxXSXzX2X2XVXAXdXdXFXFX          ",
"  FXFX(.! -.=.>.2.2.=.] Y U T 6 d t.H.@X#XxXhXhXfX9X$X$X8XhX5X:X0XhXjXjXbXjX@X%XfXlXxX-XD.J.5X|.*XVXCX2X.XsXZXDXsXzXFX          ",
"  FXFX~.n ! 2.<.*.2.H P [ [ [ m k # f.P.L.%X9XjX6X9X:X$X>X3X3X8X9XhXhXjXjXxXhXlXzXsXdXVXsX+X:X2X XaXCXjX.XsXVXDXzXiXDXFX        ",
"  FXFXyX~ t W $.$.P v S n F M 6 6 6 : S.I.B.v.oX3X9X9X<X,X$X&X$X@X#X$X$X0X8XhXbXlX.X2XzXVXvXgX5X;XOX5XvXaXgXxXZXCXiXDXFX        ",
"  FXGXwXg < w J r q i m w n e 4 4 l W Y.G.$XN.g.].jXxXhX3XL.C.C.K.H.K.L.L.V.V.V.P.|.;XVXVXvXvXCXlX1X,XlXvXgXlXzXCXiXDXFX        ",
"  FXFXwXf 1 m C 3 1 < u 1 j 6 , 4 M T G / A.:XP.N.*XhXjX>XP.S.S.+X8X=X=X-X;X<X].F.D.P.5XlXCXlXlXlXcXhXxXSXvXxXjXlXfXzXFX        ",
"  FXGXw.t i C C q 3 1 i z z j 5 6 b | | Y ( j.l.D.L.P.oXF.D.+XfXxXfX'.].Z.A.sXlXsXaX>X6X5XlXlXjX9XlXCXVXSXCXzXfXgXxXiXFXFX      ",
"  FXDX~.J A q a C m x A T ] F F T S } | U U ! / y.B.L.P.D.M.v.Z.F.S.M.V.S.F. XXXXX.X.X5XdXbXcXcXlXlXCXCXCXvXCXxXgXxX=XDXFX      ",
"  FXNXq.} ' 3.R A m P } ,.1.,.=.,.$.*.-...=.X...#.5.z.z.|.-X+XD.V.L.L.C.V.@X9XcXVXsX X.XhXcXZXVXCXlXjXCXvXvXCXCXlXiX+XAXFX      ",
"  FX_.} R  . .o.} F I -.1.1.,.} =.1.U c N U | | o.{ ! D Q Q ( / j.E..X:XoXP.@X9XjX9X8XhXzXcXcXVXVXlX5XlXCXCXZXvXgX,X*XFXFX      ",
"FXFX(.} O.O.o.} o.*.{  .1.,.,.J { U b k l b T  .X.,.-...L N T Y -.>.#.4.5.E.-X9X0XjX9X,XpXdXVXcXVXjXjXVXvXvXZXZXgX+X+XAXFXFXGXFX",
"FXFX).+.1.1.3.a +.O.,.{ ,.,.<.%.Z c c B K L U U ..=.X.| P P Y B -.X...' } C 7.2X8X9X9X%X XhXVXVXAXjXaXVXCXVXCXAXlX|.F.2XDXFXGX  ",
"FXGX( u >.O.} a J 1.1.o.| =.<.F D S K b L T  . . .' { U [ S P b | =...[ { 3.=.7..X9XhXnX].F.gXVXAXCX1XzXZXCXCXDXsXOXF.dXFXFX    ",
"FXFX6.J 2.<.P i J 2.&.} *.1.<.>.$.$.S b b L | U T U  .Y P F P K P  .{ ..o.+.<.&.6.XXlXkX<XS.|.cXZXlXXXcXDXAXCXZXvX*XoXSXFXGXMX  ",
"FXDXr.=.<.{ x y i s A V V H ] *.<.P k c L T U T K U  .$.G Y $.L S K K N I {  .X.>.7.2X9XOX.X|.6XAXjX.XlXFXDXAXCXcX*X].dXFXFXFX  ",
"FXNXr.O.,.F a q 3 , 1 J H } $.=.-.v k B P ' { T F ..| -.Y Y ^ K [ Y Z S { -...X.<.>.T.5X8XaX<X*XSX2X[.zXDXDXDXCXlX*XA.VXFXFX    ",
"FXFXtXr.&.H H A 3 + , F ' [ I F Y P P [ ' ' T P D -.| ..Y S ! D $.%.^ P ' { -.,.1.1.+.R.hX9XlXlXVX=XiXvXAXDXDXCXsXA.[.FXFX      ",
"  FXFXtX0.+.&.A 5 1 r ] [ ' { S U U [ I ..| [ %.$.&.T x m m g g ;...Z c F B x M I >.>.4.^.kXcXVXzX.XsXCXAXDXAXxX=Xu.*XFXFX      ",
"    FXFX_.;.x w i q p V A S S I [ ' S Z ..,.| %.*.+.v 6 < - E.{.^.w.w z v 6 4 5 z } 1.>.E.jXjXAXVX;XgXZXAXAXVX=XZ.k.1XFXFX      ",
"    FXFXwX9.V a n V D n z e n S ' S c D S Y T G C D ! W > m.3XnXCXdX) t j 3 4 w F | 1.;.l.9X5XZXgX2XgXVXAXDXlX2Xm.|.DXFX        ",
"      FXFXtXQ.0.@.+.&.S c l l n G m 5 p P Y Y Z y y m W s.:XkXnXnXnXR.0 6 4 w m B { 1.h k.0XhXcXaX,X1XCXZXiX;X'.G.2XFXFX        ",
"        FXFXFXyXQ.+.&.[ K c l D +.! O , S Y S D a 3 < h d.A.3X3XOXS.j.r w a Z Z N $.*.= y.OXhXlX-X+X1XCX;X X].l.;XSXFXFX        ",
"          FXMXr.! A &.} x w z Y H 0 O + n U D z w 6 3 7 ; p.k.Z.l.a.$ , t t C $.S Y @.s.k.U.8X6XJ. XgX'.d.A.]. XSXFXFX          ",
"          FX_.Q x A H r 1 < V ] s O @ 9 A I B 5 e w , a h ; p.y.; d + 2 r g *.*.3.;.: b.oX6XoXB.oXiX{.l.'.|.OXsXFXFX            ",
"        FXFX(.Z w p J < + 3 m V s o , q p G v q q < 1 A { W 9 @ @ u 9 9 , < D C a / n.#X>X5XV.M.*X].l.OX9X5XaXAXFXFX            ",
"          FXtX@.y d s n q q M m J s p 9 , u G e w < p C >.J y < 9 s 2 @ r q m V d l.#X1X].D.b.b.*X[.*XfX2X2XiXSXFX              ",
"          FXFX_.0.~ #.#.A Z A i Q g 0 d O @ +.G A q s +.g u p s C @ X X 3 < g / z.D.+Xk.f.v.k.b.OXgXVXxX<X.XzXFXFX              ",
"            FXFXMXwXW.h u s 9 u g s 9 @ X O 9 +.&.C s 9 % @ u g , X o o , y / z.B.B.N.i.i.v.F.=XzXxXcXSXSXdXFXFXFX              ",
"              FXFXFXMX!.4./ 0 g J ! r O X o u 2.+.@ X o O 2 u 0 2 , # > $ d z.m.n.B.c.c.f.|.nXzXpX2XxXAXFXFXFXFX                ",
"                  FXFXFXNXeXqX~.0.w.s + , u Q Q 9 + . . X O r o @ p r : a.a.+XZ.M.v.D.S. XlXpX=XdXzXaXGXFXFXFX                  ",
"                      FXFXFXFXGXMXyXe.s u %.$.p @ q @ . . o u % 9 i J h a.n.N.B.u.y.F.>XjXsXpXsXDXSXsXDXFX                      ",
"                              FXFXFXNXQ.8.@.~ n 5 m p O O O s u 2 t i +.5.i.i.i.& u.F.BXGXZXDXFXFXFXFXFXFX                      ",
"                                  FXFXGXrXwXw.W p C +.s u 9 Q g 0 f = s.a.p.p.g.u.b.sXFXFXFXFXFXFXFXFX                          ",
"                                    FXFXDXFXwX8.#.8.0.~ Q s r g d t.i.v.k.p.m.sXBXBXFXFX                                        ",
"                                        FXFXFXNXyXyXyX) u u f w.!.f.[.iX[.|.xXFXFXFXFX                                          ",
"                                            FXFXFXFXFXqXW.~.(.HXBXm.SXFXFXFXFXFX                                                ",
"                                                    FXFXFXFXDXFXMX XDXFXFXFXFX                                                  ",
"                                                              FXFXSXFXFX                                                        ",
"                                                                FXFXFX                                                          "
};
