/* XPM */
static char *Layer_21648218746[] = {
/* columns rows colors chars-per-pixel */
"64 64 225 2 ",
"   c None",
".  c #04090C",
"X  c #0A0C0D",
"o  c #030507",
"O  c #030D12",
"+  c #0B0E11",
"@  c #010F19",
"#  c #04141C",
"$  c #0C161A",
"%  c #0C181E",
"&  c #081217",
"*  c #131314",
"=  c #141A1E",
"-  c #1B1B1C",
";  c #151719",
":  c #201F1F",
">  c #041924",
",  c #0B1B23",
"<  c #031E2A",
"1  c #061923",
"2  c #171E23",
"3  c #04212D",
"4  c #0B222C",
"5  c #1E2123",
"6  c #13232B",
"7  c #172428",
"8  c #042533",
"9  c #052B3B",
"0  c #0A2D3B",
"q  c #072936",
"w  c #172C37",
"e  c #15353C",
"r  c #0B303E",
"t  c #222324",
"y  c #2A2A2A",
"u  c #23282C",
"i  c #24333A",
"p  c #313232",
"a  c #3E3E3F",
"s  c #053244",
"d  c #0B3242",
"f  c #06364A",
"g  c #0B3A4D",
"h  c #07384C",
"j  c #163846",
"k  c #063D53",
"l  c #093D52",
"z  c #253C46",
"x  c #1E4849",
"c  c #064056",
"v  c #06455D",
"b  c #0B455B",
"n  c #0A4459",
"m  c #144354",
"M  c #18475A",
"N  c #24414D",
"B  c #234654",
"V  c #244B5A",
"C  c #244B54",
"Z  c #3E4D55",
"A  c #27535A",
"S  c #3C474C",
"D  c #074661",
"F  c #064B64",
"G  c #0A4B64",
"H  c #084D6A",
"J  c #144C61",
"K  c #06516D",
"L  c #0B526C",
"P  c #0E5065",
"I  c #1B5263",
"U  c #15546B",
"Y  c #075572",
"T  c #0C5A76",
"R  c #0B5C7B",
"E  c #085977",
"W  c #165E77",
"Q  c #295964",
"!  c #335865",
"~  c #225E78",
"^  c #0B617F",
"/  c #17647F",
"(  c #2E6567",
")  c #256779",
"_  c #3A6975",
"`  c #3A7678",
"'  c #414141",
"]  c #495156",
"[  c #416C7D",
"{  c #626E73",
"}  c #0C6484",
"|  c #06698D",
" . c #0A6A8D",
".. c #076588",
"X. c #156988",
"o. c #0A6D92",
"O. c #066C91",
"+. c #0B7195",
"@. c #0A759B",
"#. c #0C799D",
"$. c #06749B",
"%. c #137495",
"&. c #276C86",
"*. c #376D82",
"=. c #3A7986",
"-. c #2B7C97",
";. c #0B7CA3",
":. c #087AA3",
">. c #4A7C8D",
",. c #4B7E91",
"<. c #497789",
"1. c #3C8285",
"2. c #368898",
"3. c #3D939B",
"4. c #0A83AC",
"5. c #0982A9",
"6. c #1986AB",
"7. c #0986B1",
"8. c #0A89B4",
"9. c #068EBB",
"0. c #0A8EBB",
"q. c #0687B3",
"w. c #0B91BD",
"e. c #0691BF",
"r. c #1D90B8",
"t. c #3996B6",
"y. c #2A8DB0",
"u. c #44888A",
"i. c #4C8193",
"p. c #448696",
"a. c #51879B",
"s. c #47989D",
"d. c #558DA1",
"f. c #4999A7",
"g. c #5A95AA",
"h. c #5C9CB5",
"j. c #448EA9",
"k. c #609EB5",
"l. c #4EA2A5",
"z. c #50A5A7",
"x. c #53ABB4",
"c. c #57B6B8",
"v. c #67A6BE",
"b. c #0B95C4",
"n. c #069CCD",
"m. c #0A9BCC",
"M. c #0A96C6",
"N. c #1098C7",
"B. c #079FD1",
"V. c #2E9EC4",
"C. c #359DC1",
"Z. c #07A2D5",
"A. c #0AA2D5",
"S. c #06A6DB",
"D. c #0AA6DA",
"F. c #06A9DF",
"G. c #09A9DE",
"H. c #16A6D7",
"J. c #2EA8D1",
"K. c #06ACE3",
"L. c #09ADE3",
"P. c #09AFE8",
"I. c #02B3ED",
"U. c #09B3EB",
"Y. c #15B2E7",
"T. c #04B6F1",
"R. c #04B9F5",
"E. c #01BFFE",
"W. c #0CBFFA",
"Q. c #0AB8F3",
"!. c #15B6EC",
"~. c #26BAEA",
"^. c #36BDEA",
"/. c #2EBFF0",
"(. c #48A4C3",
"). c #44B7DC",
"_. c #59B4CC",
"`. c #69ACC6",
"'. c #6CB1CC",
"]. c #60BEC0",
"[. c #6AB8D5",
"{. c #72BAD5",
"}. c #72B9D5",
"|. c #01C0FF",
" X c #0CC1FC",
".X c #14C2FB",
"XX c #1BC4FB",
"oX c #23C5FA",
"OX c #2DC9FB",
"+X c #27C8FB",
"@X c #33C5F5",
"#X c #34CBFB",
"$X c #3BCCFB",
"%X c #31C7F8",
"&X c #36C0EE",
"*X c #5CC3C6",
"=X c #62CCCD",
"-X c #68D6D8",
";X c #43CEFC",
":X c #4BCFFA",
">X c #4ACAF5",
",X c #52CDF6",
"<X c #4CD1FC",
"1X c #46D0FB",
"2X c #55D4FD",
"3X c #5BD6FD",
"4X c #5DD1F6",
"5X c #51C4EA",
"6X c #6AC6E6",
"7X c #77C6E4",
"8X c #7DCCEA",
"9X c #6CD9FE",
"0X c #67D8FD",
"qX c #74DBFE",
"wX c #7CDCFE",
"eX c #78D3F4",
"rX c #67DEE0",
"tX c #6DE7E9",
"yX c #72EAED",
"uX c #72F3F5",
"iX c #73FBFD",
"pX c #75F7F9",
"aX c #75EFF1",
"sX c #81D4F4",
"dX c #83DDFE",
/* pixels */
"                                          : 2 2 , 0 v E L c q 7 -                                                               ",
"                                    ; $ 4 g L ..4.M.K.P.I.S.0.| k 4 ;                                                           ",
"                                - X 8 R b.L.T.E.|.E.E.E.|.|.E.E.L.7.D , y                                                       ",
"                              * O k b.T.E.E.E.E.E.E.E.E.E.E.E.E.E.W.K.$.q 2                                                     ",
"                            * . D A.|.W.W..XXX.XW.E.E.I.T.W.E.W.E.W.E.R.0.s $                                                   ",
"                          - o k A.E.T.Y.<X0X9X3X;XoXb.H y.;X1X<X<X<X:X;X#XV.j -                                                 ",
"                          X 4 t.$XOXr.&.8XdXdXdXdX6Xm z {.dXdXdXdXdXdXdXwXqXj.w                                                 ",
"                        t . [ sXeXwX`.B `.dXdXwXdXd.d t.9XwXwXdXwXdXwXqX9X2XC.r                                                 ",
"                        t 6 `.dXwXdX8XV Q 6X9X0X5X~ } Q.XXOX$X:X:X>X^.^.H.N.L O                                                 ",
"                        y j ).6X7X7X[.~ & X.~..X!.T R S.B.:.@.+.} } Y U I M j i i z z p 5 u                                     ",
"                        z h } X.&.&.W g . > 7.R.W.o.> s f 9 k E  .:.4.(.'.}.}.}.{.'.`.g.,.Q w , -                               ",
"                  j U %.8.N.A.D.K.K.Z.0.R 8 f m.L. .1 s O.M.K.R.R.E.W.2XdXdXdXdXdXdXdX9X<X~.M...d $ *                           ",
"            u j T 8.K.R.W.|.|.|.E.E.E.|.T.b.D v l 9 D m.E.W.|.E.E.E.E.OXqXdXdXdXdXdX4XoX XE.|.R.Z.| 9 O *                       ",
"        - i <.(./..XE.E.E.E.E.E.E.E.E.E.E.E.N.q o o } W.|.E.E.E.E.E.E.W.2XdXdXdXdXwX$X|.E.|.|.E.E.R.m.E % X y                   ",
"      7 ! `.sXdXqX3X#XW.E.|.E.E.E.E.E.E.E.W.;.1 @ # k L.E.E.E.E.E.E.E.W.:XwXdXdXdXdX<X XE.E.E.E.|.E.|.U.6.j + t                 ",
"    * n ).wXdXdXdXdXqX<X.XE.E.E.E.E.E.E.R.0.s < X.T > +.R.E.E. X.XoX#X:X9XdXdXdXdXdX9XXXE.E.E.E.E.|.|. X:X'.! + 2               ",
"  - # 5..X;XqXdXdXdXdXwX2XXXW.E.E.E.|.U.@.q w j.@Xb.8 9 b.E.+X3X9XqXwXdXdXdXdXdXdXdX0XoXE.E.E.|.E.E.E.XX9XdX7X[ * ;             ",
"  $ H L.W. X$X9XwXdXdXdXdX3XoXW.|.R.B.L 1 z v.dX0X&X..# l N.2XdXdXdXdXdXdXdXdXdXdXqX$XR.E.E.E.|.E.E.E.#XqXdXdXsX>.= *           ",
": 8 N.|.E.E.E.oX:XqXwXdXdXwX3XW.K.@.9 , _ }.dXdXdX3XY.L # l h.sXdXdXdXdXdXdXdXwX9X$X XE.E.E.|.|.E.W.$X9XdXdXdXdXsX,., X         ",
": < 0.Q.E.E.E.R.W.oX;X3X9XeX_.6.D w ! h.sXdXdXdXdXwX>XD.Y # 6 _ `.eXdXwXwXqX9X<X+X XE.|.E.E.|.|..X:XqXdXdXdXdXdXdX6XX.1 *       ",
"y + d } | | | ....$.;.6.y.-.*._ a.`.sXdXdXdXdXdXdXdX0X.XK.+.9 . 7 ! f.).@XoX.X X|.|.|.|.|.|.|..X2XdXdXdXdXdXdXdXqX#XU.} % -     ",
"    2 u = O 8 s k F } -.h.'.7XsXsXdXdXdXsXdXdXdXdXdX3X.X|.R.n...s 1 1 h ^ 5.B.F.U.I.T.T.U.F.m.6.p.,.,.a.a.d.h.h.C.H.P.L.R , p   ",
"        ; 9 0.F.K.I.T.%XqXdXdXdXsX{.k.d.a.a.d.k.}.eX;XE.|.|.|.R.K.q...l 9 8 9 h v v F F v f 3 > < 8 8 8 6 < < , 3 9 n R +.n 2   ",
"      y #  .R.|.|.E.E.W.OX3XwX[.<.! u.s.x.x.s._ C ) H.E.E.E.E.E.E.E.R.U.Z.9.#.^ r 6 A ` ` ( e 9 %.b.m.n.m.b.8.;.H . o 5 6 4 O a ",
"      - d m.|.E.E.|.E.E.|.XXt.B ( =XyXpXiXiXiXtXl.e K L.|.E.|.E.E.E.E.E.|.|.Q.4.) ].tXpXuXuX-X1.P M.|.|.|.|.|.|.b.< * ]   y * ' ",
"      + L U.|.E.E.E.E.E.|.L.F C -XiXiXpXrX-XuXiXpXl.0 5.E.|.E.E.E.E.E.E.E.E.b.I ].iXiXpXpXiXiXyX1.Y L.E.E.|.E.|.A.9 X           ",
"      &  .E.E.E.E.E.E.|.|.8.d z.iXiXiX=Xx x =XiXiXyX( F U.|.E.E.E.E.E.E.|.T.E _ aXiXc.( x.pXiXiX-XQ r.W.E.E.E.|.G.s . p         ",
"    ' # @.E.E.E.|.E.E.E.|.#.j =XiXiXiX*XA ( -XiXiXiXs.n G.|.E.|.E.E.E.E.|.K.c 1.pXpX1.e z.iXiXiXpX=.*.@XW.E.E.|.G.s o p         ",
"    ' # ;.|.E.|.E.E.E.E.E.;.A -XiXuXpXuXrXtXpXiXiXiXc.I A.|.E.E.E.E.|.E.|.F.c 1.-X*Xl.s.z.x.c.c.c.` A 5X XE.E.|.D.9 X p         ",
"    ' % #.W.E.E.E.E.E.E.|.M.I u.3.2.2.3.3.s.s.s.s.l.u.m N.|.E.E.E.E.E.E.|.R.#.%.6.5.#.%.-.2.p.i.>.[ *.^. XE.E.|.A.9 X           ",
"      % O.E.|.E.E.E.E.|.|.T.5.;.8.e.e.9.9.8.4.5.@. .} | G.|.|.E.|.E.E.E.|.|.R.T.R.E.E.R.Q.@X>X4X4X,X@XW.|.E.|.|.M.8 +           ",
"      = Y I.|.|.|.E.E.E.W.|.E.E.|.|.|.|.|.|.|.|.|.R. XR.|.|.|.|.E.E.|.|.|.|.|.|.E.|.|.|.|.|. X X.X XE.|.E.E.|.|.8.# -           ",
"      t f A.|.|.E.|.E.E.E.E.E.E.|.E.E.E.E.E.E.E.|.E.E.E.E.E.E.E.E.E.|.E.E.E.|.E.E.E.E.E.E.E.E.E.E.E.E.E.E.E.|.Q...& y           ",
"        , @.W.|.E.E.E.E.E.E.|.E.E.E.E.|.E.|.E.E.E.E.E.|.E.|.E.E.E.|.E.E.E.E.E.E.E.E.E.E.E.E.E.E.E.E.|.E.E.E.|.G.k X             ",
"        * h A.|.E.E.E.|.E.|.E.E.E.E.E.E.E.E.|.E.E.E.E.E.E.E.|.E.E.E.|.E.E.E.E.E.E.R.K.T.E.E.E.E.E.|.E.E.|.E.E.5.> -             ",
"          # T U.|.E.E.E.E.E.|.E.E.E.E.E.E.|.E.E.E.E.E.E.E.|.E.E.E.E.E.E.E.E.E.|.P.@...K.E.E.E.E.E.E.E.E.|.|.A.k +               ",
"          - #  .U.|.E.|.E.|.E.E.|.E.E.E.|.|.|.|.|.E.E.E.|.E.E.E.E.E.E.E.|.E.T.0.E H b.R.E.E.|.E.E.E.|.E.|.U.^ & y               ",
"            * < o.I.E.E.E.E.E.E.E.E.E.|.|.|. X|.E.E.|.|.|.|.|.|.|.E.E.R.S.7.E D | G.R.E.E.E.E.E.|.E.E.|.I.o.1 -                 ",
"              X 1 ..P.|.E.E.E.E.E.E.E.E.|.OX3X<XXXR.K.U.I.I.U.L.Z.b.:.R v D | m.R.|.|.E.|.E.E.E.E.E.|.I. .< ;                   ",
"                * # E D.E.E.E.|.E.|.E.E.|.$X9X9XOXG.E k D Y Y H D v H ..8.G.E.E.E.E.E.E.E.E.E.|.E.E.L.R , t                     ",
"                  - O c e.R.|.|.E.|.E.E.E. X+X+X XT.0.| o.#.4.9.n.H.~.%X#XOXXXW.E.E.E.E.E.|.E.|.R.b.D , p                       ",
"                    X & 9 ..S.|.|.E.|.E.E.E.|.E.|.E.E.E.W.E.|.|.XX2XqXqXwXqX9X;XW.E.E.E.|.|.E.A. .d y                           ",
"                  t 4 X.v 3 k #.K.E.|.|.E.E.E.E.E.E.E.E.E.E.E.W.:XwXdXdXdXdXdXqXOXE.|.|.R.G.$.l 6 p                             ",
"                  - k L.L.5.k 3 k $.A.Q.|.|.|.|.E.E.|.E.E.E.E.W.3XwXdXdXdXdXdXdX:XW.I.M...h 6 t                                 ",
"                  %  .R.|.E.G.;.v 8 s T 4.Z.T.E.|.|.|.|.|.E.|. X$XqXdXdXdXdXsX7XC.+.D w 6                                       ",
"                t 9 N.|.E.|.|.E.N.g . + , s G  .5.b.Z.F.L.U.U.L.Y.).[.'.k.i._ N 6 = y                                           ",
"                2 K U.|.|.R.D.#.g 7         * & 8 9 9 s h l h h g d e q w 0 c T b                                               ",
"                4 4.Q.F.4.R g w p           7 n 7.;.o.R K F F F H E ..:.9.B.I.T.8.I                                             ",
"              5 q  .R g w u                 d w.|.W.E.R.R.R.T.T.T.E.|.|.|.|.|.E.K.$.M                                           ",
"              5 $ 7 5                     w +.Q.E.E.E.|.E.|.E.E.E.T.T.T.R.T.T.S.F.A.X.B                                         ",
"                                        u G G.R.Z.$.7.R.E.R.T.I.I.I.I.I.I.I.Z.K  .L.Z.} B                                       ",
"                                        d 8.I.L.| 0 } I.R.T.I.I.I.I.I.I.I.I.n.M B 5.K.B.} N                                     ",
"                                      i ^ L.I.7.g   +.U.I.I.I.I.I.I.I.I.I.I.n.U { M 4.I.Z.^                                     ",
"                                      m w.I.M.P     } L.I.I.I.I.I.I.I.I.I.I.B.W     M 4.L.b.M                                   ",
"                                      M #.w.R z     W I.I.I.I.I.I.I.I.I.I.I.Z.W       m X.X.                                    ",
"                                        V Q         ^ K.I.I.I.I.I.I.I.I.I.I.A.W                                                 ",
"                                                    T K.I.I.I.I.S.n.L.I.I.I.S./                                                 ",
"                                                    T K.I.I.I.Z.T n 4.I.I.I.S./                                                 ",
"                                                    L G.I.I.I.e.m S } L.I.I.S.T Z                                               ",
"                                                    L S.I.I.I.5.j   U D.T.I.G.T Z                                               ",
"                                                    P A.I.I.F. .z   V 8.T.I.F.R Z                                               ",
"                                                    J Z.T.I.B.L       X.I.I.G.T ]                                               ",
"                                                    m 4.F.S.;.V       U M.K.N.P ]                                               ",
"                                                      b ..} G           } @.W C                                                 "
};
