/* XPM */
static char *dcedece91ff24d038d53e54d17c6d3e3qtJsbrxjzJMDNoqO[] = {
/* columns rows colors chars-per-pixel */
"64 64 212 2 ",
"   c None",
".  c #040303",
"X  c #0B0403",
"o  c #070809",
"O  c #0A0B0B",
"+  c #090708",
"@  c #130502",
"#  c #1B0602",
"$  c #120906",
"%  c #1B0903",
"&  c #0F0F10",
"*  c #0F1010",
"=  c #111212",
"-  c #1C1C1C",
";  c #230602",
":  c #2A0602",
">  c #230B03",
",  c #2C0C03",
"<  c #2A0D0B",
"1  c #330C03",
"2  c #3B0A02",
"3  c #300702",
"4  c #23100F",
"5  c #331103",
"6  c #3C1203",
"7  c #36110F",
"8  c #3A1312",
"9  c #281616",
"0  c #1F2020",
"q  c #272727",
"w  c #382120",
"e  c #440B03",
"r  c #4D0D03",
"t  c #520C03",
"y  c #5C0C02",
"u  c #451403",
"i  c #4A1503",
"p  c #4E1804",
"a  c #4B100E",
"s  c #541B05",
"d  c #5D1D05",
"f  c #51120B",
"g  c #571306",
"h  c #431312",
"j  c #4B1511",
"k  c #4C1916",
"l  c #561916",
"z  c #670D04",
"x  c #6B1105",
"c  c #641B04",
"v  c #6B1D04",
"b  c #64130A",
"n  c #6B1309",
"m  c #641205",
"M  c #731503",
"N  c #7A1404",
"B  c #741E05",
"V  c #78180F",
"C  c #781609",
"Z  c #671813",
"A  c #771611",
"S  c #741813",
"D  c #790E03",
"F  c #6C2505",
"G  c #742304",
"H  c #7C2404",
"J  c #7D2707",
"K  c #6B3E07",
"L  c #763A07",
"P  c #4A2120",
"I  c #54312F",
"U  c #6C4608",
"Y  c #784508",
"T  c #776B09",
"R  c #474748",
"E  c #554140",
"W  c #535353",
"Q  c #841204",
"!  c #8B1A04",
"~  c #871707",
"^  c #9C1504",
"/  c #941A04",
"(  c #9D1D04",
")  c #951609",
"_  c #8A1913",
"`  c #9B1913",
"'  c #A21606",
"]  c #A51B05",
"[  c #A91909",
"{  c #B91605",
"}  c #B71B06",
"|  c #A21B12",
" . c #AA1B14",
".. c #BC1C12",
"X. c #842306",
"o. c #8A2206",
"O. c #852904",
"+. c #8A2905",
"@. c #882E08",
"#. c #952405",
"$. c #9B2504",
"%. c #952B04",
"&. c #9C2D05",
"*. c #8A3306",
"=. c #9D3303",
"-. c #AC2505",
";. c #A42C05",
":. c #A82605",
">. c #BB2504",
",. c #B42C05",
"<. c #BA2D05",
"1. c #B42505",
"2. c #A33303",
"3. c #AC3304",
"4. c #AD3D05",
"5. c #B33504",
"6. c #BB3202",
"7. c #BF3806",
"8. c #C31603",
"9. c #CA1703",
"0. c #C31C04",
"q. c #CD1904",
"w. c #CA1B0D",
"e. c #D51A03",
"r. c #DB1903",
"t. c #D41A0A",
"y. c #E31A03",
"u. c #EC1C03",
"i. c #EB1D0B",
"p. c #F41C02",
"a. c #FD1B01",
"s. c #F11D09",
"d. c #C12204",
"f. c #CB2404",
"g. c #C32A05",
"h. c #CB2B05",
"j. c #D52304",
"k. c #DC2202",
"l. c #D42C04",
"z. c #DB2C04",
"x. c #C33404",
"c. c #CD3304",
"v. c #C33905",
"b. c #CB3B04",
"n. c #D33305",
"m. c #DB3304",
"M. c #D43B03",
"N. c #DB3D04",
"B. c #E42303",
"V. c #EB2202",
"C. c #E32B03",
"Z. c #ED2903",
"A. c #F52402",
"S. c #FE2400",
"D. c #F52B02",
"F. c #FE2901",
"G. c #FE2D01",
"H. c #FD2C01",
"J. c #E43403",
"K. c #EF3304",
"L. c #E23B03",
"P. c #EC3B04",
"I. c #F43403",
"U. c #FE3201",
"Y. c #FE3401",
"T. c #F33B02",
"R. c #FE3D01",
"E. c #FD3C01",
"W. c #8C4607",
"Q. c #895B08",
"!. c #925807",
"~. c #A34406",
"^. c #986807",
"/. c #997609",
"(. c #A06E07",
"). c #A87906",
"_. c #CE4003",
"`. c #D94203",
"'. c #E34403",
"]. c #EE4802",
"[. c #F34202",
"{. c #FE4201",
"}. c #FE4301",
"|. c #F64A01",
" X c #FE4E01",
".X c #FE4B01",
"XX c #FE5001",
"oX c #FE5001",
"OX c #928509",
"+X c #AB8408",
"@X c #B18A06",
"#X c #BC9607",
"$X c #C49C05",
"%X c #CDAA05",
"&X c #C8A705",
"*X c #D1AC05",
"=X c #D2A707",
"-X c #D5BC06",
";X c #D8B505",
":X c #CCBD07",
">X c #E2B505",
",X c #DBC605",
"<X c #E1C506",
"1X c #F2CB03",
"2X c #F0C104",
"3X c #E9D404",
"4X c #FED201",
"5X c #F4DA03",
"6X c #FEDD01",
"7X c #F4D305",
"8X c #FEE300",
"9X c #FDE801",
/* pixels */
"                                                                                                                                ",
"                                                                          O                                                     ",
"                                                                        * . . O                                                 ",
"                                                                        O . > % O                                               ",
"                                                                        o % @.+., +                                             ",
"                                O . o =                                 . 5 v.P.$., o                                           ",
"                                = . . . . o                           * . s M.Y.I.! > o                                         ",
"                                  . > p , X o                         o X G P.U.Y.z.M @ O                                       ",
"                                  . i x.<.m # . =                     . % %.I.G.G.U.h.r X *                                     ",
"                                  . u n.U.C.~ ; . *                 = . 1 x.G.G.G.G.D.] ; X                                     ",
"                                = . i n.G.F.Z./ ; . =               O X d m.G.Y.U.F.F.B.x X +                                   ",
"                                o . c J.G.F.F.V.N @ o               . # %.D.G.Y.R.U.F.F.} 3 . &                                 ",
"                              O . # %.D.S.F.S.S.q.t . o           & . 2 h.F.U.{.{.{.Y.F.V.C X X               =                 ",
"                              . X d m.F.S.S.S.a.S.( ; . =         o @ J Z.S.Y.{.}..X}.G.S.} 3 . &           * . +               ",
"                            o X s x.F.S.S.F.S.S.S.r.t . o         . 6 g.F.G.E.{..XoX.XR.F.B.x X o           . . . O             ",
"      & . o               . X F c.F.S.S.S.U.G.S.a.p.Q @ o       o # X.Z.S.Y.{..X XoX X{.U.A.[ ; .         o . % # . =           ",
"      o $ X o           + X s c.S.S.S.S.F.{.Y.F.a.S.{ : . &   o X d l.a.F.R.}. XoXoXoX}.E.S.e.r . o       . % J B @ +           ",
"    O % F G # +         . , ,.F.S.S.S.G.Y.}.{.Y.S.a.q.2 . . . X f g.S.F.E.{..X XoXoX X.XR.G.p.N @ .     . . p c.f.e . &         ",
"    o 5 v.J.M @ o     o . c J.S.a.S.F.Y.{.E.{.E.F.a.r.t . . # c g.A.F.E.R.}. XoXoXoXoX.X{.G.a.} ; . o . . ; ;.I.A.~ @ o         ",
"    X d L.Y.f.e X &   . ; ;.F.S.S.F.Y.{.{.{.{.{.Y.S.u.Q i v :.B.F.G.R.{.}. XoXoXoXoXoX.X{.Y.S.e.t . . . @ G J.G.U.g.e .         ",
"  & $ +.T.U.D.( # . . . i l.S.S.S.E.}.}.{.{.}.}.{.Y.S.u.B.A.S.S.Y.R.{.{..X X XoXoXoXoX X}.E.S.i.D X . % G m.G.Y.{.K.N @ O       ",
"  & % 3.E.U.G.z.y . . X X.Z.S.S.U.R.}.}.}..XoX.X{.{.E.F.a.a.F.E.{.{.{.}..XoXoXoXoXoX X X{.R.S.A.' : u #.J.U.R.R.{.E.>.: .       ",
"  O 1 v.{.Y.G.D.( # . 5 <.F.S.S.E.}.}.}..XoXoX.X}.{.{.E.G.G.E.{.{.{.{.}..XoXoXoXoXoXoX.X}.R.F.a.r.-.n.I.E.R.{.{.{.R.z.g X =     ",
"q O 6 b.{.R.U.G.j.r X c C.S.S.U.R.}.}..XoXoXoXoX X{.R.{.{.R.{.{.{.{.{.}. XoXoXoXoXoX X.X{.R.H.S.S.U.E.R.{.R.{.{.{.{.I./ # O     ",
"0 + u M.}.}.R.G.D.~ i ,.F.S.F.E.}.}. XoXoXoXoXoXoX}.}.{.{.{.{.{.{.{.{.{.}.oXoXoXoXoXoX}.}.{.Y.U.Y.R.{.{.{.{.{.{..X.XR.d.1 .     ",
"- . i M.}.}.}.E.H.z.h.D.F.S.U.R.R.}. XoXoX XoXoXoX.X{.{.R.{.{.R.Y.U.E.R.}.}. X X XoX.X{.{.{.{.R.{.{.{.{.{.}.}..X X X{.z.t X =   ",
"0 o u M.}. X.X{.Y.F.G.F.S.S.Y.{.{.{.}..X.X X X X.X.X{.{.R.{.E.U.S.a.S.F.Y.R.{.{.}.}.{.{.{.{.{.{.{.{.{.{.}. X XoXoXoX}.I.N X &   ",
"q o u b.{..X X.X{.Y.F.S.S.S.Y.{.{.{.R.}.}.[.T.[.T.R.{.R.E.U.S.a.p.a.a.a.a.S.F.G.Y.Y.Y.E.E.Y.Y.E.R.{.{.}.oXoXoXoXoXoX}.I.( # =   ",
"  O 1 v.}..XoX X.X{.Y.G.F.S.G.E.R.T.J.v.4.~.~.~.~.4.7.l.V.a.a.a.a.a.a.a.a.a.a.a.p.p.p.p.S.S.S.F.E.{.{.}. XoXoXoXoXoX}.Y.>., = W ",
"  & ; 5.{..X XoX X.X}.R.G.F.S.F.Z.3.W.(.#X=X;X;X*X$X+XW.#.9.p.a.a.a.a.a.a.a.u.0.:.;.;.3.-.0.y.S.U.{.{.}. XoXoXoXoXoX.XE.h.2 + 0 ",
"  & # %.T..X XoX XoX X}.{.Y.F.B.#.Q.=X1X6X8X8X9X8X8X7X>X/.G q.a.a.a.a.a.a.e.o.Q.@X%X*X%X#X^.*.0.D.R.{.{.}. X X XoX X{.Y.l.e . . ",
"    X v P.}..XoXoXoXoX X{.Y.F.[ K =X4X6X8X8X9X<X,X5X6X4X*XU ^ p.a.a.a.S.u.! Q.>X5X3X8X8X6X1X+XJ j.E.{.{.{.}.}..X.X.XR.E.z.r . . ",
"    . i M.{..X.XoXoXoXoXR.G.A./ Y >X4X6X8X9X5XOXT -X6X4X%XK ] p.S.a.a.a.y.B /.5X-XOX:X9X9X6X=XL 0.G.R.{.{.{.{.{.{.{.R.E.z.i . . ",
"    o > ,.T.{..X X X X}.E.G.F.>.F @X>X4X6X8X9X,X-X1X3X=XQ.X.y.a.a.S.S.a.A.] Y $X-X&X<X8X3X;X/.O.k.F.Y.R.{.{.{.{.E.{.{.R.c.2 X = ",
"    * $ G P.E.{.}.}.{.R.Y.G.G.D.<.@.^.+X#X&X%X%X&X@X^.*.] B.S.S.S.S.a.S.S.V.} *.!.(.).^.!.*.&.j.F.F.G.Y.}.}.{.{.{.{.E.Y.<.: = R ",
"      . u c.{.E.{.{.{.{.Y.U.U.G.G.z.>.;.&.=.=.=.;.-.d.k.A.S.S.S.S.S.S.S.S.S.S.V.k.f.d.d.f.k.D.F.G.G.G.U.Y.E.{.{.{.{.E.T.#.# & W ",
"      O % &.{.{.R.{.{.R.Y.Y.Y.U.U.U.G.F.F.D.A.A.S.S.F.S.S.S.F.S.S.F.S.S.S.S.S.F.S.F.F.F.F.G.G.G.G.G.U.U.Y.Y.{.{.{.{.R.L.c X &   ",
"        o d N.E.R.{.{.{.E.Y.E.U.U.U.U.U.U.G.G.F.G.G.G.F.F.F.F.F.F.F.F.F.F.F.F.F.F.G.F.G.G.G.G.U.U.U.Y.Y.Y.Y.Y.{.R.{.E.<.1 .     ",
"        o ; &.{.{.E.R.R.E.E.E.E.Y.U.U.U.U.U.U.U.G.G.G.G.G.G.F.G.G.G.F.G.G.F.G.G.G.G.U.U.U.U.U.U.Y.Y.E.Y.E.Y.E.E.R.{.L.v X &     ",
"          . u v.}.{.{.{.{.{.Y.Y.E.E.E.Y.Y.Y.Y.Y.U.U.U.U.G.U.U.U.G.G.U.G.U.U.U.U.U.U.U.U.Y.Y.Y.Y.E.Y.Y.R.{.E.{.{.{.[.%.; +       ",
"          O $ v N.}.}.{.{.R.{.R.E.E.Y.E.Y.K.m.J.U.Y.Y.U.U.U.U.U.Y.U.Y.U.U.U.U.U.Y.Y.Y.E.Y.E.Y.E.E.Y.E.E.E.{.E.{.[.3.1 X         ",
"            o % G `..X}.}.{.{.{.R.R.{.E.{.P.,.! $.<.m.T.E.Y.E.Y.E.Y.Y.E.E.Y.Y.E.E.Y.Y.E.T.E.R.R.{.{.{.{.}.}.}.|.3.1 o           ",
"              o # v M..X.X}.}.}.{.{.{.{.{.{.T.c.$.v v B #.1.h.m.J.J.J.J.J.J.J.T.E.E.R.R.E.{.{.{.{.{.{.}.}.|.'.%.: X             ",
"                o @ s 5.]..X.X}..X}.}.}.{.}.}.}.T.L.<.%.B v c c c m v v c v X.c.E.{.{.{.{.}.{.}.}.}..X}.|.7.v % o               ",
"                    X , H b.|. X.X.X}..X.X.X}.}.}.}.}.}.[.L.M.x.6.6.6.6.6.x.M.[.}.}.{.}.}..X}..X.X.X|.v.J 5 $ o                 ",
"                      O @ 6 O.b.]. X X X.X}..X.X.X}..X}.}..X}.}.}..X}.}..X}..X}.}..X.X.X}..X.X|.`.5.G 5 $ o                     ",
"                          o $ 5 c 2._.]..X X X.X.X.X.X.X.X.X.X.X.X.X}..X.X.X.X.X X X X.X].`.3.O.p , X O                         ",
"                                $ % 6 d O.5._.'.].|..X X X X X X X X X X.X.X|.'.`.b.3.+.F 6 > $ O                               ",
"                                      o $ % , u c G O.%.$.;.3.3.3.2.;.$.+.X.F g u : % $ O o                                     ",
"                                            ; z x y r e e 2 2 2 2 2 1 2 e e t z D C a                                           ",
"                                          < Q y.p.y.r.r.e.9.9.8.8.8.9.9.e.y.y.r.r.i...Z                                         ",
"                                        4 n r.a.r.^ ^ y.a.a.a.a.a.a.a.a.a.a.s.` x { i...S                                       ",
"                                        f 8.p.u.~ 7 n r.a.a.a.a.a.a.a.a.a.a.i._ 8 n 8.i.w.A                                     ",
"                                      8 ^ p.s.| j   V r.a.a.a.a.a.a.a.a.a.a.i.` P   b { u.t.V                                   ",
"                                      f { y. .f     C y.a.a.a.a.a.a.a.a.a.a.i.`       g ' 0.)                                   ",
"                                        b A l       n y.a.a.a.a.a.a.a.a.a.s.i.| l                                               ",
"                                                    z y.a.a.a.a.p.y.u.a.a.a.i. .I                                               ",
"                                                    z r.a.a.a.s.' z ) u.a.a.i. .l                                               ",
"                                                    b t.a.a.a.t.A 9 l q.a.a.i. .j                                               ",
"                                                    b t.a.a.s...b   k [ a.a.s. .h                                               ",
"                                                    l q.a.a.i.` h     Q y.a.s. .h                                               ",
"                                                    j { p.a.t.S       f { p.s.` 8                                               ",
"                                                      n | [ _ k         S | ` A                                                 ",
"                                                        w w               I E                                                   "
};
