/* XPM */
static char *af771badf8284baa8c9c2a12255e5dd8hkhksKhoz0JfX4ms[] = {
/* columns rows colors chars-per-pixel */
"64 64 224 2 ",
"   c #0F1A1A",
".  c #0E1A17",
"X  c #131614",
"o  c #1E1614",
"O  c #161C17",
"+  c #1D1B16",
"@  c #19161A",
"#  c #151C1A",
"$  c #1D1C1A",
"%  c #161718",
"&  c #2A150E",
"*  c #2B190F",
"=  c #32190F",
"-  c #3B1D0E",
";  c #241614",
":  c #2C1614",
">  c #231B16",
",  c #2B1B15",
"<  c #231D1A",
"1  c #2B1D1B",
"2  c #221618",
"3  c #331514",
"4  c #3B1613",
"5  c #331C15",
"6  c #3B1C14",
"7  c #331D1A",
"8  c #3B1D1A",
"9  c #331718",
"0  c #1C2417",
"q  c #1E211C",
"w  c #152219",
"e  c #3D240F",
"r  c #242117",
"t  c #2C2216",
"y  c #25211D",
"u  c #2A221D",
"i  c #2C291F",
"p  c #27281E",
"a  c #332216",
"s  c #3B2216",
"d  c #302816",
"f  c #33221C",
"g  c #3B231B",
"h  c #33291D",
"j  c #3C2B1C",
"k  c #3D321A",
"l  c #1C1E20",
"z  c #241E20",
"x  c #2B1E21",
"c  c #371E21",
"v  c #1D2321",
"b  c #162220",
"n  c #252421",
"m  c #2B2521",
"M  c #262924",
"N  c #2D2924",
"B  c #202628",
"V  c #2D2B29",
"C  c #332522",
"Z  c #3B2522",
"A  c #322A25",
"S  c #3B2B23",
"D  c #332D29",
"F  c #3A2D2A",
"G  c #322728",
"H  c #2C302A",
"J  c #35342B",
"K  c #39312F",
"L  c #44150E",
"P  c #43190E",
"I  c #4A1A0E",
"U  c #511C0F",
"Y  c #5A1C0F",
"T  c #441612",
"R  c #4A1514",
"E  c #441C15",
"W  c #4B1C14",
"Q  c #441D1A",
"!  c #4B1E19",
"~  c #541C14",
"^  c #5C1D13",
"/  c #541C19",
"(  c #5B1F19",
")  c #521711",
"_  c #61180F",
"`  c #6B1A0F",
"'  c #621807",
"]  c #7C1C0E",
"[  c #641713",
"{  c #631D13",
"}  c #6A1C14",
"|  c #6C1E19",
" . c #661B16",
".. c #731D13",
"X. c #7C1D14",
"o. c #432315",
"O. c #4B2215",
"+. c #4C2916",
"@. c #43231A",
"#. c #4B231B",
"$. c #432B1C",
"%. c #4C2A1A",
"&. c #452814",
"*. c #532315",
"=. c #5C2315",
"-. c #5E2B16",
";. c #52231B",
":. c #5B231B",
">. c #532B1B",
",. c #5D2B1B",
"<. c #4D321A",
"1. c #493117",
"2. c #5B371B",
"3. c #5D3B1A",
"4. c #573319",
"5. c #6F200E",
"6. c #78220F",
"7. c #632314",
"8. c #6B2415",
"9. c #632A14",
"0. c #6B2B14",
"q. c #642219",
"w. c #6C241A",
"e. c #632A19",
"r. c #6A2D1E",
"t. c #742214",
"y. c #7B2314",
"u. c #742A14",
"i. c #7B2A14",
"p. c #782118",
"a. c #7E2A1A",
"s. c #712A18",
"d. c #643216",
"f. c #6E3816",
"g. c #7C3014",
"h. c #783917",
"j. c #481E20",
"k. c #412621",
"l. c #4A2521",
"z. c #432B22",
"x. c #4D2A21",
"c. c #532C22",
"v. c #592A21",
"b. c #443325",
"n. c #473623",
"m. c #513824",
"M. c #663821",
"N. c #684319",
"B. c #7B4F1B",
"V. c #784317",
"C. c #70501E",
"Z. c #664021",
"A. c #704823",
"S. c #811A0D",
"D. c #8B180E",
"F. c #921E0F",
"G. c #841E13",
"H. c #8B1E12",
"J. c #8C1B17",
"K. c #941B12",
"L. c #A31F10",
"P. c #8E240E",
"I. c #842213",
"U. c #8C2415",
"Y. c #832A14",
"T. c #8C2B12",
"R. c #832419",
"E. c #8E2F19",
"W. c #942317",
"Q. c #9D2314",
"!. c #932C14",
"~. c #992419",
"^. c #8D3513",
"/. c #84341A",
"(. c #823D1B",
"). c #8E3616",
"_. c #953514",
"`. c #9B3514",
"'. c #943D1A",
"]. c #9A3A17",
"[. c #9A290A",
"{. c #A5220E",
"}. c #B9280F",
"|. c #AE390F",
" X c #A22514",
".X c #A22914",
"XX c #A92A14",
"oX c #B22010",
"OX c #B22D13",
"+X c #BA2715",
"@X c #A33112",
"#X c #A33C16",
"$X c #B43B13",
"%X c #BC3B13",
"&X c #B23112",
"*X c #CB2E0E",
"=X c #CD210D",
"-X c #DC210A",
";X c #C7340E",
":X c #CF2218",
">X c #C92712",
",X c #C33515",
"<X c #D23C10",
"1X c #D62813",
"2X c #8A4E1F",
"3X c #934315",
"4X c #994A19",
"5X c #8C581C",
"6X c #975D17",
"7X c #A04118",
"8X c #A74A1B",
"9X c #B64315",
"0X c #BC4A14",
"qX c #A9581C",
"wX c #9C601C",
"eX c #9A5E20",
"rX c #A46422",
"tX c #B86621",
"yX c #D3410F",
"uX c #C44A13",
"iX c #DB4D14",
"pX c #C95211",
"aX c #CA6014",
"sX c #CA8B2A",
/* pixels */
"N J u r 7 1 u 1 < y < f 1 y E u $ 1 x < j.z > 1 8.> r y N u > m m m m r y i f C g Z C G i 5 g.s.n m r m 1 $ 2.tXiX`.O < < y y $ ",
"u A u y g f m u < y y 5 9 > *.W 1 m < 1 ! < + g E < u 1 u N y m N n u y y A u 1 j A S Z T 5 r p.( $ u y $ %.qXe 1.rX0.* X < u < ",
"N C y y Q Q N u m < m 1 3 7 I X.1 m n > W , # z.u < 1 5 < m u u u y m y > A C < A D A N Q u n > /.8 $ @ E _.3 $ u S 4.h.g.1 < g ",
"u y 1 $ 1 4 C i < u 1 7 3 [ F.I.f M y 1 / 5 8 *.$ 1 + u u m > 6 ;.n m m , N C y u m N N m a + + +.!.L H.K.8 $ < y j q s 8Xw.o i ",
"< u 1 > 4 [ 9 y u < 1 8 4 D.>X^ P < u 5 `.`.^ { , < < f , > > p.c.m m n u m N u u M u m m S 6 X _ OXW.-XS.# < > < y j m ; 7.6 o ",
"< < , : :.J.u.a > 1 < f f E ` 4 8.9.~ 0.`.-.X 6 W $ y j > $ 4 ^ #.m m m f u y m g u N u m m @., ;XH.; X...# < 1 $ f f n > , 8 a ",
"1 > < > > ` 0Xa $ y y f m q : 1 O.8.U O.q.I 1 > W 5 $ $.y v W 7 l.C u f f m y y n.A V A u y 5 >X*X/ > ..R # > < < f > m 1 y u @.",
"u $ 7 < X '.uX. $ > > a y y r > > r u r =.y.( > , =., , # 7 T 1 i @.A N *.u u < a C A G < W ..{.~ $ 1  .9 $ + < < , < > > > < u ",
"1 1 1 < > 4 u.7 $ r r > > n y , = y y f 5 #.o.$ $ ! { 3 ^ | ~ > < $.g A h.+.G G i u < f M.( 8 7 z C 1 ( 9 2 1 m u < u 1 $ < < r ",
"! W < < 1 < 5 1 1 , $ : , > q g 5 $ < u q f Q < u 0 y.=XH.o I a y r f K j g m.K m < u ,.%.n G C u m N Q 5 < m m m m y 8 1 + < r ",
"4 / v 1 6 r , < $ 4 ~ T 5 > $ f , y < < y u j < x $ ) S.3 k -., y r N D A p b.b.f ;.:.S M V Z f C m i 5 7 m y m C x m m :.4 , 5 ",
"5 q.y ! 6 q 1 7 1 w 6 *.0.= , 5 < < m u y u a y z 4 ~ Y 6 j u : i u f A D G V b.v.Q.e.N C A Z E f C c @.f m N m 1 < 1 u ;.9 < E ",
"u E 0 E , f 7 1 6 5 $ $ 7._.Y.~ O y y u m u g a < ~ 4 ,X<.@ y y u m m u A K J f @.,.S D S b.6 4 Q E 8 f C m i u 1 < > @.7 $ + +.",
"f t.! 8 > < < < , , 1 > + I XXR.4 t u > > u a 6 p.y.L.Y.$ < < < $ u C 7 N J J $.S z.f m y u *.u $ < V f f 1 1 < < y y c m m $ 6 ",
"8 ^ / ! 1 x < u y 1 1 > y q P Q.K.^.6XwXwXY.U.G.R.- L.K.X < $ o > < u j A J b.*.S C N y < > Z.u + u N f 6 1 < < u 4 , $ m u t s ",
"#.~ s e.q x < > y > 1 < y r W Y.> t 1.4.<.7 ! ..~ # < H.E $ < n > $ , P *.+.O.>.F j N y > u z.y $ + $ 6 q.4 $ < y 7 8 1 u M f Q ",
"u f q 9.^ $ u > < < < < > w ` ~.w y $ l $ n b 7 Q > < 5 ~ + > < y > e I.^ u , 7 g ;.i G u 8 E y < > > 4 o.,.a $ < Q 5 u m n #.f ",
"p r y y q.E n r < y 1 < > > X._ $ > > u m m < f l.1 < < 5 1 n > u o (.5.6 y y 1 , ^ o.f f Q W $ > 2 , > + t w.=.1 5 y q y 8 [ < ",
"u y q M u q.1 < > > < y # -.t.= y + > > < y m < l.7 < < > 1 y < > & V.6 6 , r v 1 *.7 n y + 4 f > + > , < $ o Q =.^ @.m b ;.Y.$ ",
"y y n u q E W.4 q > < O 8 !.L s q > $ $ < < u n :.! < y u 8 y 7 5 I O.o I.) $ y 5 g z y y > W 5 $ > > 1 $ > $ $ 1 7.q. .g %.*.O ",
"y r y n m $ ).3X@ < > 7.XX*.-.5 n > 1 3 9 , < $ W / w u y *.W 6 =.Y , , ] } + , * r y r y u 9 $ > 4 5 f $ > > < q > u a 0.} ` f ",
"u q y u y $ i 9X3 q   $X*X9.tX- a 6 ^ ~ o &.> + 1 8 < y n 4 T g - > q 4 - ] 1 1 r r y n < 1 u > > > > 1 y < > $ > > u q u ~ ! #.",
"7 , < y y u $ @XP.6 & 0X$XY h._.3 f u ; > 8 1 < 1 o.u < n 7 3 $.M.#.6 { - =.y q y r y n y 7 x > $ + $ < y y n n y y < u u 1 n u ",
"u , 4 7 y u + g.uX8X@XyX..4 O.Q., y n f ~ 5 m y x s.8 y u 7 5 8 < f 6 w.6 5 v y y n.f > u 1 < y $ 2 > > y u y > y n u M f 1 m m ",
"M i 1 5 i x $ 7Xe.0 $.i.8.g f 8., > + / +X~ y 5 1 e.{ > 7 , > g 1 q g , < 9 u y > r m f t u < < < + o 5 9 9 f + y m m N f i m u ",
"N N n v.( C u '.E n m y 1 n y y < x > a 1XQ.T 6 1 r s 1 c y > q y > 7 1 < , f n < < < g j 0 < < > z , W R 7 < n y m m m f p m m ",
"N N n l.Q m < ~ s y A m 1 m 1 y < < y 1 {.{.W 1 < m a 7 m 1 1 < < u f > 1 y 7 y m u 7 %.$.f 1 < y 1 1 3 5 5 $ y m m m C f N m N ",
"m y u Z i u n ;.@.m m m N m n y y a g f ..R 1 y m N C C n u < y n 1 i > 1 + d o.q u < $ y a < > 1 y > $ > , > > y A V h m n y m ",
"N x m C Z Z n k.W m C m u @.E u x f u 7 } < 8 1 m N g f G G u y < t $ y m $ t @.1 n < y < 1 $ < < m < < > , o $ $ x V @.C M y m ",
"u f m N A Z u j 7.u 1 m 1 g Q ! x A n f X.g > 1 u < #.#.C m C y t f > > m y t < E > < y y 1 < < < y 1 < < : o + y < m l.Z m m G ",
"d u m 1 A F m ;.].s N y r n x 7 8 C G $ ' W 1 7 7 m 7 C C m A C f > n < m < > g 5 5 q y y < < < $ < u 1 : 1 > + u N 1 @.C m N F ",
">.i m u n B n j V.r N r y $ f < f f y 2.&X/ # 9 7 u n m C F C C f y y r y m r s g T t y 1 < < < < > > 1 1 1 1 + n N 7 #.m u N D ",
"*.d.j 7 E Y 9.3.B.n m > y $ , , u y o.(.>.4.) > N g 1 y u A z.! m y < y y n y , u E } , > u x n 1 < > 1 1 1 : 2 n N Z ~ p u N i ",
"Z N q.Q.y.$XaXsXrX< m 1 y > > 1 M u *.f N %...: V Z 8 Z 8 C k.:.S < y y y n u f r y { P y 1 1 1 1 > > 5 ; > = , 1 g #.~ M C m @.",
"p c.G.| f , h A 2X=.q i < < > : M u m C j < ; 8 u p C A N y m c C < u > > > u 7 $ q { =.> n < 7 c > 7 8 y $ + > < #...p.A y i A ",
"7.s.S @.$.N V v 5.*X3 q u y < 2 < @.< A Z < o > f Z f p M m N m < y y 1 > < < 1 > n 5 { , r 5 < n 1 E Q n < > > $ g | | | t t f ",
",.N N x f D A M g.{ { ~ 2 $ < < : f 1 m h y + $ y z.l.8 > m 1 < m > > < < 1 < > y < B W ..T y < < 7 8 7 1 > > $ = W.Q y { T.Y.].",
"M m m y r r p C 7.$ 7 G.G.8 E 4 ; u < y N $ o > $ p u , Z 7 u u G < $ > < 8 1 $ > > y 7 K.6 y y $ 8 8 > m > > ; K.K.+ y v e.<X%.",
"C m m m u u y +.W > v 1 | #.T Q $ m > > m > o $ n m < y F g g z.N < > > , 7 4 < $ $ u 7 w.u n u 1 @.< z > < # X.oX; $ u > 1 [.8 ",
"m m n C f y y { 7 y u m > y m c < N < n m > y y G m m G @.Z @.#.i 1 f g > q > , s ;./ ( ^ 1 > 1 x 1 $ > < 2 6 ;.o = 4 < > $ G.=.",
"u u u f u y s X.< y > n < < < Z D A m m u > > m u N J F O.V >.%.;.3.$.6 7 , / E.f.*.1 g =.6 5 , < z > < < , 7.= o 6 > $ > # X.| ",
"9 < u u n y g ^ $ < < z < $ < 7 G N x D y < + < N p N >.~ D l.l.f t j ,.6 8 W 6 a r $ 5 a.5 > > > n n o f > N.d & : < < < $ ) [ ",
"g E f u n y f 6 $ < n < < $ < n u N m 1 m > + > y C M A.>.8 C n A u g @.< < $ X f #.+ * H.4 0 x : W T , , + &.f , u m < y n ! ~ ",
"g 8 f y u y s ! $ > 1 7 u < < 1 1 G C y V < + $ $ $ y 2.y f 7 < m u u , x $ > < > ! 5 $ 6 7 y x 6 R E , $ < W 7 < > N < 1 M g W ",
"r t @.n m n f E $ y < < n y < 1 y y N N D m $ > < X 6 #.r D C V n y a > u y < 1 > f 7 $ 7 u y 1 4 > 5 y < < 8.1 < 1 C m < m @.( ",
"u.=.<.y u n @.Q y y y < < > > < 1 n > m G J m y m > *.1 N A D F u < 5 u m u > m y 7 7 > ~ E < 1 q > ! y v 7 / > < 1 m u < M g }.",
"uX%XO.y m n O.@.n y y y > < r 1 1 y $ > m C 1 G J f { $ A N F N y n g s u u y y m 7 5 1 W } 1 n y y T y $ @.7 z m 7 r i u p ,.%X",
"y Y.i.# $ $ | g q < < > y < < 1 9 $ y > < f < y M O.( $ A N m m 1 y 8 6 M m y u 1 7 : Q [ U.u m y u *.; $ %.> > > 7 y y u 1 i.S ",
"M x p.;.r.| ..u u < < > < y y < 6 m > n 8 Z q m H Y.#.$ m N N 1 1 > > T 7 m 1 < 7 8 3 ] :X8.s y y > i.u.} 8.+ y > t u y 0 ^ @.M ",
"h m #.i.h. XX.y u 1 u y > $ < n < 7 m < 7 1 y < m a.C x u V < < 1 3 ) U.~ 1 < < 1 f 7 ` D.L ^ s g ;.9XE.> W T # r s > $ , { z m ",
"y u 7 1 w 1 { f u u y y y < r q < W f M f 1 < r u s.m < y y > > 1 ; 8 ` ].&.$ n < u m 1 E 9 8.a.Y 9.8.4 # , ~ , q n.< q o.4 n < ",
"m < i 8 u B #.E < u y < m n r $ 1 T 6 u 1 8 > $ g =.n y > y y < 9 < % _.pX+ $ > < f m r $ y > u f u 8.5.~ $ 8 / $ a $ > T > m m ",
"m y u f u q o.y.> m u y y n y f < W ! 7 < n u > E 7 n < < 1 u > 1 > $ *.#X> $ y > 1 > y y > 6 0 y 1 Q -.+.+ $ #.T o , { / > y m ",
"x m u u m C a t.9 > # $ y q y y m ^ g N < u N 1 8 < < y < < ;.E $ < 1 ; 6 7 , > $ , > > y a 4 O 1 s r f 8 > y r y.K.K.6 R , < < ",
"> y y f m N y q.4XwXi.,.#.f u u f g g p m m y 7 Q < < < < $ T @.0 > 5 y 1 < < 8 6 4 : > $ s , $ < < n f @.y y $ { }.) r *.: > , ",
"1 , f 1 r n y *.$.C./.~ #.s p n f u C C m A N 7 7 n m < u $ f  .q 8 E r 1 < > > ^ ^ &.> r 5 , y u 1 < u g y r , ~ R , 4.$.; $ y ",
"u 1 1 u < $ j e.w < u 0 q y y y y n y m u u m 1 1 < < m y n , ~ 0 ! 7 u 1 8 6 , $ , g.u.) E < 1 1 i y m t t $ W T XX<.+ < 1 > y ",
"m < 1 f m < %.,.y C s u m n n y < y y m m u m x 1 y < y u y 7 ^ 7 4 < f 1 < 7 9 1 $ 3 i.&X8.X $ z $ $ < i s ) w.` @Xg $ m 1 > q ",
"n $ , 8 y m o.1 p g f u m 1 y u y y < u < < m u y m < n y < 8 p.*.#., < q r > t 1 > > $ Y .XJ.s.N.d.N.9.} Y U.=.}.I.. < 2 < 1 ; ",
", f O.#.y 8 ~ $ @.Q M N u y n y n y u u m 1 1 < < n > > g O.=.W o.( $ < < y y 1 < < n M E Y.) 9.B.5X2X7.p.~.}   E  X3 > > > : T ",
"*.&.r s ! t.8.&.Q m m m A m m n u y < < < a 1 1 7 8 s E :.o.W @.u s.g n 1 < < < < < < b #.W.# l $ + $ z # 8 #.z $ ~ ~ $ > y < 6 ",
"a *.+ 5 I W g 8.Z M N D N A n y < 7 f u < g u < c 1 u < $ n n q q f ..7 n > < y < < < $ ..G.< 1 y M i u 1 f O.> < y T < $ y u > ",
"y - 7.X.T.@.n 7 n n D N G n < < y 5 y n y o.1 y u y y > y u N n u n g { > y $ > < < $ @.y.4 y + $ < y u < < ;.< < y < , y < u < ",
"y r _ G.T ,.&.d.+.u N N A u < u n o.1 y f 6 f m m m m < y y u y y u $ *.^ > < y > < + /._ 6 < $ > > > > x n ;.g y m 1 7 n u < > "
};
