/* XPM */
static char *b825e20eeb3f4c7ab269b67ef2ade10cZwiDNp1AH1yqbBry[] = {
/* columns rows colors chars-per-pixel */
"50 50 248 2 ",
"   c #02567B",
".  c #015F82",
"X  c #04668C",
"o  c #046D8C",
"O  c #046687",
"+  c #06738D",
"@  c #016C92",
"#  c #066D97",
"$  c #037294",
"%  c #02749B",
"&  c #047B9C",
"*  c #0A7C9C",
"=  c #087A96",
"-  c #0175A3",
";  c #027BA4",
":  c #0A7CA3",
">  c #017DAB",
",  c #097BA9",
"<  c #107BA3",
"1  c #0A839D",
"2  c #07839B",
"3  c #188899",
"4  c #24909A",
"5  c #36A09B",
"6  c #0482A4",
"7  c #0B85A4",
"8  c #0B8BA4",
"9  c #0383AC",
"0  c #048BAC",
"q  c #098CAC",
"w  c #0887A7",
"e  c #148DAC",
"r  c #1788A6",
"t  c #0A92AD",
"y  c #0A92AB",
"u  c #1894AB",
"i  c #0184B2",
"p  c #048CB4",
"a  c #0A8CB4",
"s  c #0789B8",
"d  c #118FB6",
"f  c #0593B4",
"g  c #0C93B4",
"h  c #0494BC",
"j  c #0B94BA",
"k  c #069BBA",
"l  c #0B9ABD",
"z  c #0C99B5",
"x  c #1394B5",
"c  c #1495BB",
"v  c #129BBB",
"b  c #1B9CBC",
"n  c #1999B5",
"m  c #278DA8",
"M  c #2596AB",
"N  c #249AB3",
"B  c #239BBC",
"V  c #2797B7",
"C  c #3196B4",
"Z  c #0DA2BD",
"A  c #05A1BE",
"S  c #1CA3BC",
"D  c #15A4BC",
"F  c #1DA1AD",
"G  c #39ACA9",
"H  c #27A4BB",
"J  c #38A5BC",
"K  c #2FA6B1",
"L  c #42B3B3",
"P  c #5AC8B9",
"I  c #68C2B4",
"U  c #049DC4",
"Y  c #0C9CC3",
"T  c #0297C7",
"R  c #129DC2",
"E  c #199CC4",
"W  c #039CD1",
"Q  c #0BA5C8",
"!  c #14A2C3",
"~  c #1AA3C4",
"^  c #13AAC4",
"/  c #1CABC4",
"(  c #14A6CB",
")  c #1BA6CA",
"_  c #14ACCC",
"`  c #1BABCC",
"'  c #19B3CD",
"]  c #0AA8D8",
"[  c #13ACD1",
"{  c #1DADD3",
"}  c #11ABDB",
"|  c #1BB4D3",
" . c #1AB6D8",
".. c #22A3C3",
"X. c #2BA3C4",
"o. c #22AAC5",
"O. c #2CACC5",
"+. c #24ABCB",
"@. c #2CACCB",
"#. c #2AA7C9",
"$. c #32AAC5",
"%. c #33ADCA",
"&. c #38A7C6",
"*. c #24B3CD",
"=. c #2BB2CB",
"-. c #2CB7C9",
";. c #35B3CD",
":. c #3AB3CE",
">. c #39B7C9",
",. c #27AED2",
"<. c #23B3D4",
"1. c #2CB3D3",
"2. c #2DBCD5",
"3. c #23B5DB",
"4. c #24BBDC",
"5. c #2CBBDB",
"6. c #29B8D7",
"7. c #33B4D3",
"8. c #3BB5D3",
"9. c #33BAD3",
"0. c #3BBBD5",
"q. c #34BCDB",
"w. c #3BBDDB",
"e. c #33B6D9",
"r. c #30ADD2",
"t. c #0BAEE1",
"y. c #0CB6E5",
"u. c #1ABAE6",
"i. c #18BAE6",
"p. c #24BCE4",
"a. c #2BBDE3",
"s. c #37BDE1",
"d. c #46ADC9",
"f. c #44B7CB",
"g. c #59B6CD",
"h. c #43BCD5",
"j. c #4ABBD4",
"k. c #42BDDA",
"l. c #4BBED9",
"z. c #46B4D2",
"x. c #56BDD6",
"c. c #61BCD3",
"v. c #73BFD4",
"b. c #42BFE3",
"n. c #28C3DB",
"m. c #34C3DB",
"M. c #3CC2DC",
"N. c #36C3D6",
"B. c #18C3EA",
"V. c #0EC0E8",
"C. c #2BC3E4",
"Z. c #23C4EA",
"A. c #2DC5EA",
"S. c #28C7E8",
"D. c #34C4E3",
"F. c #3BC5E3",
"G. c #34C9E4",
"H. c #3CCBE4",
"J. c #34CAEB",
"K. c #3BCCEC",
"L. c #35C5EA",
"P. c #3AD1ED",
"I. c #3ACEF1",
"U. c #3DD1F1",
"Y. c #17C1D8",
"T. c #43C3DD",
"R. c #4BC4DB",
"E. c #49C4D7",
"W. c #54C3DC",
"Q. c #57C7D9",
"!. c #58C9D5",
"~. c #64C9DC",
"^. c #68C6D9",
"/. c #72CCD7",
"(. c #44C5E2",
"). c #4CC6E3",
"_. c #44CBE3",
"`. c #4BCBE4",
"'. c #44CDEC",
"]. c #4CCDEC",
"[. c #45C5EA",
"{. c #52C5E2",
"}. c #53CBE4",
"|. c #5CCBE4",
" X c #53CCE9",
".X c #5ACAE6",
"XX c #42D3EE",
"oX c #4BD3EC",
"OX c #47D3E7",
"+X c #53D3EB",
"@X c #5BD4EC",
"#X c #5CD9EC",
"$X c #57D3E6",
"%X c #49CFF0",
"&X c #44D3F1",
"*X c #4BD4F1",
"=X c #4CD9F3",
"-X c #53D4F1",
";X c #5BD5F1",
":X c #53DBF4",
">X c #5CDBF4",
",X c #64CBE3",
"<X c #69CCE4",
"1X c #72CEE3",
"2X c #63D3E4",
"3X c #6BD1E3",
"4X c #63D5EC",
"5X c #6BD4EB",
"6X c #6CDBEE",
"7X c #63D9EB",
"8X c #73D5EB",
"9X c #74DBED",
"0X c #7BDCED",
"qX c #79D5E6",
"wX c #64DBF4",
"eX c #6BDBF3",
"rX c #63D7F1",
"tX c #73DDF3",
"yX c #7BDEF3",
"uX c #5DE1F5",
"iX c #69E2F6",
"pX c #75E2F6",
"aX c #7BE3F5",
"sX c #7BE5F8",
"dX c #79E5F8",
"fX c #75E0EE",
"gX c #84DBEB",
"hX c #89D8E8",
"jX c #86DEF2",
"kX c #97DAE4",
"lX c #93E3ED",
"zX c #9DE2ED",
"xX c #82E3F5",
"cX c #8AE4F3",
"vX c #89E8F9",
"bX c #93E5F5",
"nX c #99E7F5",
"mX c #8BE0EE",
"MX c #A2ECF5",
"NX c #A8EAF6",
"BX c #B8EDF5",
"VX c #ABF1F9",
"CX c #BBF4FB",
"ZX c #B5F3FB",
"AX c #A8E4EB",
"SX c #C9F4FA",
"DX c #D0F4F9",
"FX c #E9FEFF",
/* pixels */
"o O o o + o O o o o + = = + + 2 = = 6 0 ; > g H D ) ~ v v D ;.3XjX^.H & @ $ 1 8 7 7 < # # O       = ",
"g.J B V J O.J n x 6 & & 1 u 2 8 y 2 $ $ : w B l./ ^ Q f k f ..0.lXCXc.& $ & 1 = 2 % X X X X O . o 3 ",
"jXyX8XgX3X$X7X{.1.v 0 a y 8 2 $ = m M m r r 7 e v z Z D v n b ~ f.AXj.y 9 H !.g.g.d.J m < # # # O X ",
"jXNXAX^.f.H H x x n o.1.*.H H y t e M K N N u 8 7 8 r u M K M 8 8 M u 2 & : r V C &.g.^.x.d.J V M m ",
"m v.zXqXQ.}.R.@XeX9XyXyXeX4XrX X}.@X.X`.(.q.*.! z v z t 8 u r 4 4 5 G G 1 # % ; , : 6 8 r C M u V r ",
"X M %.{.6XtXyXaXsXiXwXpXrX-X%X'.#X:XK.L.A.A.L.J.G._.`.E.%.B F L P I P G 6 & & 8 6 - 8 y 2 X X X X X ",
"# o & 7 t ..{.,X5X7XrXeXwX;XoX'.XXXXA.u.u.i.u.K.J.S.U.:X;X7X2X!.!.G K 3 * = 1 1 9 - , 9 % @ @ % r < ",
"o O O X $ % 6 7 d n ;.5X@X@X+X+X].'.'.XX&XXXJ.J.U.U.XXoX:X#X#X#X$XR.k.M.h.:.9.:.:.&.B H B V m r e * ",
"e # # @ $ * 1 $ 2 7 r N J X.;.1.9.q.5.4.D.`.#XrX+X`.M.N.N.E.N.O.7.q.F.(..X2X|.8X8X0X~.!./.R.:.:.%.N ",
",Xx.V 7 6 q 7 % % : r m e 8 w q q g g f v H >.L J J N H G !.!.!.<XhXbXMXNXVXCXZXmX~.W.Q.Q.h.8.7.$.S ",
"jXvX8XW.d.B e 7 % # & 7 y z a q q g l z ~ f.B 1 1 0 ; 6 3 5 I AXSXBXlX3XgXjX/.v.^./.P >.H F n q 7 r ",
"yXjXbXMXbX8XR.k.%.X...S S D l g l ! ( ! ! ! x 0 y f f y 6 & r 4 G !.^.gXzXgX1Xg.J J O.x n n u w % @ ",
"rXeXvXbXtXwXwX;X-X-X].-X-X(.5._ ! ( ( 4.2.' ' ` =.$.>.O.n u 8 q 9 q x B d.c.hXBXAXlXqX|.k.r...E r.:.",
"b.{..X5XtXtXwX*X'.L.K.U.=XwX;Xq.6.}.9.*.+./ ) E.R.~.NXBXzXkXkXqX/.c.x.z.m - g.hX~.W.2Xk...x c r.{.4X",
"<Xd.&.B #.r.8.k.(.@XrXwXwXdXvXdXxXvX9X0.>.O.-.$X2XSXFXDXBXDXDXSXDXFXDXBXhXB a d x D O.j.f.$.=.-.7.l.",
"J J &.m 9 - - > a x ..8.}.$XeXyXsXpXpX$XN.Y.N.2X:X!.hXBXqXz.z.g.<XqX<X<X,Xx.o.f w 6 ; : , , w y M u ",
"h.z.0.j.O.B B B z 0 > 6 q j ! D / =.` =.W.l.=.R.N.D g E x.f.9 9 9 0 f Z k p p 0 0 0 p 9 9 9 0 y N c ",
";.,.,.T.0.5XlX7X|.|.R.2.<.1.2.R.T./ R Y k k h h h ! D z f a 9 9 9 0 Z Q _ 8.x./.R.O.~ ) %.;.O.O.$.z.",
"M B o.#.:.j.:.Q.3XeX#XM.H.m.2.0.9.*.q.' *.=./ ) ( ^ ^ ! A k z k f A A k Q 9.^.qX$X9.q.9.R.(.1.) r.#.",
"% % & ; 6 w 9 g a x g v ~ ^ Z z O.N.$X_.4.H.F.`.R.R.E.R.j.E.R.R.R.E.0.9.0.N.9.*.*.O.&.j.<XQ.h.0.r.r.",
"* & % % - ; w F v p 9 9 9 f Q 9.gXMXyX5. .$XiXcXVXCXCXZXZXZXMXlXcX#X`.`.R.T.T.q.h.E.W.3XgX0X$.%.,XhX",
"z.%.:.$.B c Z D z 0 0 g T s p l ` Q.R.<.[ | F.+X7XfXlXnXMXVXVXMXaXuX=XoXOX_.}. X$X(.(.1.0.|.l.;.3XhX",
"a.[.%X;X@X-X;X}.k.%.E c Y l f f k A _ Y j Y Y ( N.M._.H.H.M.OX$X+X#X+X_._.].(.`.M.e.1.o.#.X.B n e 7 ",
"} y.u.p.L.L.*XpXdXsXpX#X`.5.| <.=.1.-.Y s i i i h Z / *.<.' Z D X.%.&.X.$.;.=.H c x d d a x n b B X.",
"u.p.p.a.L.I.wXsXiXiXeX>X>X&XC.n.m.5.).).T.[ U h h h T U _ A f 9 9 9 c &.g.^.~.,Xk.7.@.) { ).7X6X Xs.",
";X;X;X;XwXwXeXyXsXaXdXvXdXiXK.G.(.4XyXbX3X_ U U U T U h Z ^ h p f h Y X.x.qXgXMXcXR.w.Y 7.tX.Xz.s.{ ",
"&.z.l.l.j.8.e.r.) +.+.e.M.M. .| W.hXAXCXR.' n.2.| ` Q Q Q ^ l ! ` _ Y p 0 z v x.qX}.(.<.].@X X}.M.) ",
"@ # - 6 q t p i f s > > i p l O.@.X.h.9X#XOXG.H.G. . . .4.D.D.oX@X4X XM.` / +.W.4XQ.T.5.@.,.r.X...X.",
"@ % & ; z S g g j j c X.R.~.hXMX9X3XN.n.S.Y.n.S.S.H.=X>X>X>XiXoXa.G.J.'.H.n.' M.|.W.0.S l a a , , < ",
"e e e H E.9.}.`.F.3.5.a.w.T.R.$X$X@.0.#XF.H.H.OXn.G.H.H.G.P.XXG.G.XX'.K.oXOXn.<.4.m.H.F.w.k.7.@.7.j.",
"}.#X6XpXcXdXvXpX(.w.(.).(.F.}.MXNX{.F.q.eXaXoXcX2Xn.4.oX+X:X+X_.H.G.4.6.m._.(.m.s.s.m.F.].s.~ 6.b.0.",
"H 9.0.E.Q.R.).1.` v o.+.) ! ) hXDXnX3.a.].4X`.4Xq.4.n.6XaXVXZXnXxX|.W.l.|.3XjXbXMXcXyX+X.X(.}.(.e.8.",
"0 & ; 9 f S / k p 9 i > i 9 p z O.Q.pXeX4.U Q ] Q t.Y.G.+XZXSXNXz.d T s , E E &.c.bX9X$XyX).,X8Xx.b.",
"x - % % ; > g Z g i > > 9 i i p h O.qX_.Y U U ] ] Q n.N.N.M.=.1.1XqX1X<X<XqX8X<X.X8XbXbXNXyXjXVXbXzX",
".X{.8.@...c k R S Z k h T i i i j ~ @.(.a.[ [  .n.m.OX3X$X_ T Q vXSXCXZXZXVXnXaXyXbXSX8XeX{.{.d.X.d.",
"tXxXrX;X@X].(.L.m.M.5.w.r.E s i a i i j R ( ( ` 1.7.9.9.E.T.[ Q `.0XjXjXqX<X<X^.x.c.c.bXlXW.%.~ T z.",
"@XtXwXrX].L.L.I.I.&X:X=X-XeXl.) l s s p i h l k p l Y Q ' N.' [ ( E B B V B B &.X.x g d.g.!.~.zXgXbX",
").4XyX%XL.A.A.A.J.&XwX:X&XXX&XI.J.L.L.C.3.4. ._ Q Q ' M.N.n. .(.0X5X3XqX5X.X).`.`.W.T.R.E.>.lXSXNX,X",
"@X;XeX;X'.%X%X*X*X*X;X:XI.Z.i.B.Z.I.=X*X=X*XU.M.q.1.m.m.9.4.q.C._._.;.+...E E *.m.m.T.M.s.[.}.5X5Xx.",
"b.].@XyXwX;X;X-X=X&X&X=X:X>X*X&XI.U.&X&X=X:XuXiXvXaXvXdXuX>X:X=XJ.S.oX6XyX0X0XcXaXpXyX9X4X%X[.s.b.b.",
"rXrXpXbXnXbXdXiXwXwX-X-X*X-X+X+XoXJ.S.C.S.5.3.<.3.s.+XaXiXiXiXuX+XP.=XiXpXyXyXtXdX#XoX].].].'.[.b.b.",
",.6.`.rXxXvXxXxXdXtXwX-XoXK.3.3.q.OX7X+Xm.5.<.Q (  .( [ F.oXXXF.2.p.C.C.s.5.3.[ N.| _ ' [ <.3.` E X.",
"#.E ! l / @.+.T.(.6.<.) Q l l h k l o./ Q ^ ` _ 6.@X@XF.C.4.G.'.oX+XF.1.| [ ` +.N.$X3XQ.(.q.~ d d d ",
"7 , : - ; ; > 6 g k k f p 0 p 9 9 6 ; > ; 9 9 9 g b @.9.M.M.`.,X3X3X3X<X@X}.).{.R.Q.Q.E.f.H d , < < ",
"* = * & % # % - % ; 9 s q 6 ; - - > > a c N V b b x d a g v x a a g g x x z j g 9 6 9 n J E.N.` e.s.",
"< $ = 7 7 - - - > ; , > g g 9 i a j R ( ` ` ( _ E ) ) S ! ! o.o.S E ~ b g 9 f f f g q $.M.T.R.W.b. X",
",.,.` @.,.{ ,.1.,.{  . . . .p.a.p.p.Z.B.Z.Z.B.Z.B.B.S.J.P.K.G.K.`.H.q._ q.M.E.W.O./ s c c r.,XbXnXMX",
"W ] ] } } } p.].u.t.t.t.y.y.Z.C.t.] t.y.y.i.V.V.B.B.B.Z.XXXX*X=X&XXXD.`  .<.q.)._.<.e.W.5X8XcXNXnX1X",
"T T W W W W t.].a.t.t.y.i.i.i.I.Z.y.y.y.y.y.y.V.B.B.Z.Z.U.uX=XJ.J.U.*X Xs.} p.,.{ <.q.w.b..X5XyXjX1X",
"T W W W W ] } ].K.u.p.Z.A.a.A.J.&XI.A.B.B.i.B.B.B.Z.Z.I.P.uXiX=X%X%X%X'.3.[  .( [ } 9.) R s. X.X8XjX"
};
