/* XPM */
static char *a95920f313f2459d9860838f6a19be21SDx7mdwY7AykyhSr[] = {
/* columns rows colors chars-per-pixel */
"64 64 256 2 ",
"   c #01567B",
".  c #014571",
"X  c #00607C",
"o  c #015E86",
"O  c #005F98",
"+  c #01648C",
"@  c #026B8C",
"#  c #036683",
"$  c #06738D",
"%  c #016C93",
"&  c #016C9B",
"*  c #066794",
"=  c #027294",
"-  c #02749B",
";  c #027B9C",
":  c #0B7C9C",
">  c #077896",
",  c #147899",
"<  c #137590",
"1  c #006CA2",
"2  c #0174A3",
"3  c #027BA3",
"4  c #0076AB",
"5  c #017CAB",
"6  c #0B7BA3",
"7  c #007DB1",
"8  c #1B7CA2",
"9  c #03819B",
"0  c #09859A",
"q  c #15879D",
"w  c #0B969E",
"e  c #0283A4",
"r  c #028BA5",
"t  c #0B8BA3",
"y  c #0283AC",
"u  c #0C84AC",
"i  c #028BAD",
"p  c #0B8BAC",
"a  c #0D84A3",
"s  c #1688A7",
"d  c #0894AA",
"f  c #1697A9",
"g  c #0184B3",
"h  c #028CB4",
"j  c #0B8CB3",
"k  c #018CBB",
"l  c #0385B9",
"z  c #138DB2",
"x  c #0393B4",
"c  c #0B93B5",
"v  c #0C9BB3",
"b  c #0394BA",
"n  c #0C94BA",
"m  c #039BBB",
"M  c #0C9BBB",
"N  c #039BB4",
"B  c #1292B4",
"V  c #149BBC",
"C  c #1B9BBB",
"Z  c #1697B5",
"A  c #268CA9",
"S  c #2598A8",
"D  c #279AB8",
"F  c #3099B1",
"G  c #19A2AC",
"H  c #0BA4BB",
"J  c #07A4B9",
"K  c #13A4BC",
"L  c #19A6BB",
"P  c #12B1BF",
"I  c #29A5BA",
"U  c #2FADB2",
"Y  c #389B92",
"T  c #4CB3B6",
"R  c #46A2A6",
"E  c #51C4B5",
"W  c #68D2B8",
"Q  c #0293C3",
"!  c #029BC2",
"~  c #0A9CC3",
"^  c #0498CB",
"/  c #1B9EC3",
"(  c #139DC4",
")  c #029CD2",
"_  c #018CC2",
"`  c #299EC5",
"'  c #0BA4C5",
"]  c #0CA4CA",
"[  c #07A7C8",
"{  c #14A3C3",
"}  c #1CA4C3",
"|  c #14A4CA",
" . c #14AACC",
".. c #1CABCC",
"X. c #19A9C6",
"o. c #19B3C9",
"O. c #08A7D6",
"+. c #13ACD3",
"@. c #17ABD6",
"#. c #0BB4D6",
"$. c #1CBBDB",
"%. c #18B4D7",
"&. c #06B6C9",
"*. c #23A4C4",
"=. c #23ABCC",
"-. c #2CACCC",
";. c #28A7C5",
":. c #36ABCA",
">. c #2DB2CD",
",. c #28B7C8",
"<. c #3BB2CD",
"1. c #35B7C8",
"2. c #23ADD2",
"3. c #2DAED3",
"4. c #24B2D4",
"5. c #2BB3D3",
"6. c #2BBBD4",
"7. c #23B4DB",
"8. c #23BBDD",
"9. c #2CBBDB",
"0. c #28B6D7",
"q. c #33B3D2",
"w. c #34BAD4",
"e. c #3CBBD3",
"r. c #33BBDB",
"t. c #3BBCDB",
"y. c #38B4D6",
"u. c #34ACD1",
"i. c #07ADE2",
"p. c #0CB7E6",
"a. c #1CBBE3",
"s. c #15B7E6",
"d. c #1AAEE1",
"f. c #28BCE5",
"g. c #37BDE3",
"h. c #45AAC9",
"j. c #4BB8CD",
"k. c #43BAD4",
"l. c #44BDDB",
"z. c #47B7D5",
"x. c #58BBD5",
"c. c #4DB1D1",
"v. c #65BDD0",
"b. c #43BEE3",
"n. c #51BFE4",
"m. c #1AC4D9",
"M. c #2AC3DA",
"N. c #34C2DC",
"B. c #3BC3DD",
"V. c #39C7D9",
"C. c #34C5CE",
"Z. c #18C3E9",
"A. c #0FC1E9",
"S. c #23C3EB",
"D. c #2AC7E8",
"F. c #34C4E4",
"G. c #3BC5E4",
"H. c #34C9E6",
"J. c #34CBEC",
"K. c #3CCBEC",
"L. c #3AC8E8",
"P. c #3CD2EA",
"I. c #26CCF0",
"U. c #39CDF1",
"Y. c #3BD2F1",
"T. c #43C3DC",
"R. c #4BC4DC",
"E. c #48C7D8",
"W. c #53C4DC",
"Q. c #59C8DA",
"!. c #4BCFDA",
"~. c #64C8DB",
"^. c #67D4DA",
"/. c #72D0D5",
"(. c #43C4E1",
"). c #4CC4E3",
"_. c #44CBE4",
"`. c #4CCBE4",
"'. c #43CCEC",
"]. c #4BCCEB",
"[. c #48C5EC",
"{. c #53CCE4",
"}. c #54CDEB",
"|. c #58C9E5",
" X c #43D2ED",
".X c #4CD3EC",
"XX c #4AD6E9",
"oX c #54D4ED",
"OX c #5BD4EB",
"+X c #58D7E8",
"@X c #48CEF1",
"#X c #44D2F2",
"$X c #4CD4F2",
"%X c #4BDAF4",
"&X c #54D4F2",
"*X c #5BD5F2",
"=X c #54DBF4",
"-X c #5CDBF4",
";X c #54DCFA",
":X c #62CCE4",
">X c #69CCE5",
",X c #74CCE5",
"<X c #62D4EB",
"1X c #6BD4EB",
"2X c #64DAED",
"3X c #6BDBED",
"4X c #68D4E4",
"5X c #73D4E4",
"6X c #73DAEC",
"7X c #78D7E8",
"8X c #64DBF4",
"9X c #6BDBF3",
"0X c #65D7F2",
"qX c #73DCF4",
"wX c #79DDF5",
"eX c #59E2F9",
"rX c #6DE3F9",
"tX c #68E4F7",
"yX c #73E4F5",
"uX c #7AE2F3",
"iX c #74E3F9",
"pX c #7BE5FA",
"aX c #78EAF9",
"sX c #6FE1ED",
"dX c #84DCEC",
"fX c #89D9E8",
"gX c #88DEF4",
"hX c #94DEF1",
"jX c #91D8E8",
"kX c #89E2EB",
"lX c #96E4ED",
"zX c #8BE4F3",
"xX c #83E5F9",
"cX c #84EAFD",
"vX c #8AEBFB",
"bX c #86E7F6",
"nX c #93EBF6",
"mX c #94ECFA",
"MX c #9AE8F6",
"NX c #95F2FF",
"BX c #8EF1FA",
"VX c #A7ECF7",
"CX c #B7EDF6",
"ZX c #ACF3FD",
"AX c #A5F2FB",
"SX c #B3F2FD",
"DX c #BBF3FC",
"FX c #B8F7F8",
"GX c #A3E3EB",
"HX c #92DED5",
"JX c #CBFCFF",
"KX c #C5F7FC",
"LX c #D8FBFD",
"PX c #C4EFF7",
"IX c #E7FEFD",
"UX c #FAFFFF",
/* pixels */
"# # # < $ $ $ X # @ $ $ @ = > > $ @ @ @ @ @ 0 d v y 1 5 e d K V } *.*.V C v } R.gXdXQ.C d 3 % % = a v s s s 8 : - + #     .   9 ",
"A 8 , > = > q 0 > $ = = = @ 0 q f q 0 w v t * % > t j n B >XB.L ,.] n b ! J f z.).SXPXVXD = % & 0 @ = 9 ; - % + @ @ # o   X q f ",
"MXqXy.[.4X<X8X9XrX_.G.} M y ; = 3 f w 9 0 f t @ + % - 3 r D e.X.[ [ m N M c i =.| ,XIXDX:.3 ; 6 Z f t 0 3 % + o o o O o o @ X < ",
"0XgXgXdXlX5XQ.<X:X|.y.L Z r c { d 0 = = @ > F T T R A A s e 9 z f v L L L C } =.{ V fX/.=.h y V ~.dXdXfXfX,Xv.h.F A * 8 , * #   ",
"mXSXPXjXv.T f f v e ; e c K 5...{ ,.} r i i e e s A f S s s t a 0 q s f S F Y f q w w q 0 > - ; = 0 t Z F T v.fXgX|.z.T I I s F ",
"F v.CXVX,Xx.l.R.e.|.<X9X6XwXwXwXOX8X9X`.(.`.{.{.R.z.t...=.M h i d r r i t F F q q X q Y R S 0 % & 1 - - 5 1 = = ; A c.I f :.;.f ",
"o 8 ~.~.wXxXpXqX9X9XpXaXaXyXxXpX*X0X*X8X-XyXrXrX-X-X$X$X XH.9.7.r.B.>.K i - 2 f E E E E W E f % 2 3 u 5 3 u p v i % + * * , < > ",
"o 8 s ( <.l.|.6XvXvXbXyX-X*X0XyX&X[.L.D.L.tXJ.s.s.p.s.a.f.D.P.Y.#X&XsX3X|.W.1.U E W E E T G ; 9 > 0 w d 5 2 d d e ; * % + o o + ",
"$ @ % 9 ; ; y } ).Q.1X9XsX9X0X<X0X9X-X$XK.K. XJ.Z.a.s.s.#.H.P.D.Z.I.XX X$X9XsX6X^.W Y S s > > $ > 0 9 2 1 1 e 0 = - % = - a ` 6 ",
"$ + #   @ = ; ; 3 ; e B L C.cX0XoX}.oXoX&X@X'.$X=X=X%X#XJ.I.J.P. X X=X-X=X-X-X-XOX+X{.{.|.R.E.l.e.e.<.1.;.D z C C A A , , 3 9 @ ",
"a @ + * + + = > > ; ; 3 3 e D j.W.T.).(.B._._.F.F.G._..X;X.XXX'.H.P.L.F.H.'.`.C.R.{._.%.G.D._.+XM.M.{.<XMXkXQ.Q.x.~.W.z.j.<.1.I ",
"` ;.0 % ; 0 t G t = = q f A A 6 3 t p Z C C ;.} { [ 4.E.^.uXkX7X^.Q.V.U U E.^.I h ~ 2.OX).1X7XzXlXVXCXkXW.:XR.Q.,XgXT.>.*.e.C p ",
",XgX>XD 5 ; 3 e e - & - , s A D f a p r i i i i i i c Z f f f q s a a B Y W W sXfXGXCXCXFXKXKXDXKXJXKXZXgX5XW.R.Q.1.5.e.y.y.q.;.",
"xXxXvXqX|.c.:.s u 0 = * & 3 9 e J v p p p j c V V M =.~.h.z - r i 3 - 3 < Y Y HXIXIXLXCX5XW.~.dX7Xv.x.~.HX/.T E U G G f u 3 ; s ",
"wXgXgXmXZXZXVX|.y.<.;.B z c d t v v M y i c M { { m M L p 3 e d x v c r 0 5 : q A U ^.5X^.lXGXdXW.h.A 5 : d J 5 e r s t e % + o ",
"wXwXwXMXmXqXqXqX9X8X8X8X0X*X&X`.(.6. .=. . .%. .] 0.o.+. .' M v Z v J J i e r r 3 3 f C F x.lXVXDXCXLXVXGXlX>X:Xx.z.>.*.*.Z s z ",
"g.0XqXvXmXqX*XOX&X'.'.K.J.U.#X-X-X&XL.%.~ ~  ...8.!.M.$.8...V.N.e.:X5Xx.:.D G f f r i j b g 1 6 z fXCXCXlX7XuXz.t.;.*.V n g.}.1X",
"z.b.).[.OXbXcXpXtX&X@XK.g.L.J.J.$XyX8XL.r.B.uX1.*./ / C C =.7XV.W.FXLXCXPXPXPXCXlXGXjX,X,XQ.h.u 6 ,XfXx.<.W.6XT.3.i c c 3.[.|.1X",
"hX~.c.<.v V 3.>.R.{.{.*XiXiX9X9X8XpXmXaXvXvXvXwXE.1.e.;.;.E.^.^.UXUXIXCXPXIXIXIXPXLXUXUXIXCXFXh.1 4 2 y d L 1.Q.4Xl.k.T.y.-.l.).",
"D s s 8 6 - - 2 2 5 y c u.t.oXiXpXpXNXNXNXNXcXvXyX8.$.%.M.V.sXXX+XGXIXJX5Xx.>X,XhXlXCXVXMXVXwXdX:X..J v d r e ; - 8 6 a d B f A ",
"x.Q.>X>Xx.:.u - ; 4 p e 3 3 y v K ..,.y.T.).{.!.!.7X6XE.,.!.nX+XI Z :.,XfXx._ h h h c v H X.{ *.D c r y y 5 5 4 7 4 4 i d G U G ",
">.;.C =.w.u.L k.j.h.L d p 3 u u u i M x i x { ~ g } k.R.} 6.w.X.&.x y 5 ;.x.p e e e 5 i M H m g 7 g i p d i i g i i i r e r G r ",
"l.e...r.}.y.T.ZXAXsX0X2X2XOXN.6.9.N.N.+X6X]...( k m b h g g g k N X.L V x y y i i g y K  .!  .t.:X,XfX5Xe.:.;.*.<.j.z.<.k.y.<.j.",
"F h.k.-.<.z.|.:Xw.4XvXvXvXaXP.G.G.H.M.T.OX5.} 1.m.o.o.*.K } | ' ' H ,.,.J N N x i r N m m ! [ 4.|.hXCXgX_.%.F.N.V..XL.2...0.u.:.",
"@ + - e e z B c y z B } =.} } w.V.o.K m i K N.+XXX%.N._.M.L.V.6...{ { ' ' ' ,.>.1.=.I o.o.' ' P J H L L >.<.:.1.k.W.Q.t.} =.=.V ",
"e ; > ; 2 - ; e e d j 4 4 3 y y i X.J c j.^._.+XuXM.m.XXV.+X6X7XkXnXlXlXlXkX7X6XsXsX3X~.|.^.4X5XsXQ.6.6.,.{ j.>X,XlXz.k.~.T.u.l.",
"% - = - - - 3 5 i G ,.N g i u g g x P ,.4XVXIXmXf.[ 8.+XbXcXZXJXJXJXJXFXFXFXFXFXVXnX3X_.B.N.B.>.>.w.y.y.R.W.W.4X7XfXMX/ p R.hXCX",
"|.<.u.<.` Z j n J J v i i d Z ' _ l g b m  .:X+X5... . .M.`.XXOX7XnXGXAXFXFXFXZXVXnX;X;X;X=X%XXX+X0X-X0XoXB.)...C.=.qX:XX.|.nXjX",
"K.@X-X9XiXiX8X*XoXt.-.V j y 5 l Q b h h b ' [ { ..( | | +.| 8.H.P.G.N.G.E.`.OX3X2X-XXX.X'.N.r.G.F.F.(._.G.r._.r.t.T.u.:.1.I p i ",
"O.@.d.f.D.K.[.;X-XiXcXaXrX{.l.(.>.{ m M b b m o.' 4 4 7 g g _ } >.B.E.B.M.$.+.%.9._.2X3X4X|.3X3X<XW.l.<.` C y 5 5 y 9 ; = - - q ",
"i.@.p.s.f.J.f.f. XyXyXrXvXpXaX-XP.H.P._.B.E.`.T.2.~ k k g g g g h b b [ o.o.M j p p p u u 5 5 e J m i p B B C / V ( =.-.e.z.l.).",
"f.f.f.f.f.g.f.@XuXvXyX-XOX-X%X-X;XP.#.p.M.M. .}.}.<X).$.o._ Q Q Q ! b [ m.' h g y y 5 h -.x./.fXkXkXwXoXG.y.=./ 2.6.0XiXzXyX[.g.",
"&X&X&X}.*X*X8X8XrXpXNXNXvXcXvXvXaXsX'.J.F.9.}.<X|.VX<X&.] ^ ! ! ! Q ! ! K o.J h h h x ~ / :.W.VXVXZXKXAX1Xq.(.n g ).cX).Z w.%.@.",
":X1X0X9XqX9X2X}.}._.t.{.B.B.3XqXyX=XH.$.G.NXJXLXIXPX .m [ ] [ &.! b h j h P ! l h b ! ! g 4 3 d m g c.FXR.!..X] G.pXqX0XwX3X9.M ",
"6 6 z D C B p j j j y g h g l b n H ' J m ` h.h.jXzXC.XX X2X_.M.N.$.%.#.%.%. .0.R.{.R.B.3.V x c ,.' x.7Xw.uXG.6._.g.B.r.-.e.,.2.",
"o % % = 3 e v L h i d M l 7 4 4 4 5 x ;.Q.-./ R.4XxX].XXM.Z.S.P.#.%.$.a.M.H. XH.%XOXrXsXOXoXM. .;.D k.xXOXk.E.M...X.3.<.` C F ;.",
"- - 3 u 3 d I K g g h j g B ;.Q.6XdXVXLXVXsXBXC.&.m.Z.&.M.Z.P.M.P.=XtXrXtXrXrX8X X%.a.a.H.G.L.F.#.o.V.~.!.^.1.K N y 5 2 2 1 O O ",
"- - - - t C.,. .k.t._.F.8.F.F.).).|.!.+X+XQ.:.b 4X+Xm.D.V.XXD.m.P.P. XH.P.%X=X;XP.G.XX$X=X%XoX-X=Xm.M.(.g.[.OXB.t.y.q.<.=.-.u.x.",
"R.Q.E.W.Q.7XOXcXvXcX&X%.4.7.@. .@.$.B.4X3X).^ 0XqXG.yXyXa.uX6XN.%.P.M. X$.m.F.D.$.J.K.J.%.$.M.M.M.#.[ ] +.+.+.F.L.*X].5.} oX).R.",
"!.+XcXaXcXZXvXuXNXuXR.l.{.<X0X9X-X(.B.FXUXIXqXd.+.f.nXAXG.nXMX6X8. .r.aXuXuXaX2X+XL.G.B.M.B.B.oXuX2X+X}.}.oX[.G.oX}.=.M 5.G.0.q.",
"v } -.;.,.k.!.,.t.| ] M x m V M b N N R.CXUXMX@.f.f.[.0XF.qXB.] 8.8.`.yXyXZXJXFXFXZXwX>X|.x.>X,XhXZXDXJXFXnXbX<X{.`.).0XOX9.y.b.",
"j 3 3 y y i K 1.[ N x g g y g 5 g i i x J C.!.pXvXiX .Q ! O.O.[ #.8.#.P.XXAXUXIXKXz.4 4 7 4 4 7 7 l c u.lXVXuXN.OXwX2.:X>X).l.n.",
"y * + % 2 2 5 e L K g 5 4 5 5 7 y y g g x x 1.lXuX] k ' m ^ [ O.[ $.XX8.6.7X1Xt.5.z.c.y.t.u.u.z.x.x.c.z.W.fX^.6XKXZXOX1XPXVXgXVX",
"q.} j 5 3 3 3 5 g P I L h h g g g 7 g g g n ;.^.P._.^ ^ O.[ O.#.O.&.T.!.C.O._ 7 @.ZXJXKXFXSXSXSXZXMXcXqXOXlXLXnXwXAXqXmXSXfX7XhX",
"qXgX9X}.T.t.5.K J J L L m m ~ k l l l g g } ( n q.`.G.$.%.8.L._.+X+X5XkX7XM.[ k ^ bXKXSXSXSXSXSXZXvXxXvXzXFXLX2X}.|.X.>.( e e / ",
"1XnX8X*X8X0X8X&X].}.G.B.(.6.(.R.>.b g 7 b g g g g k m  . .( ..4.3.5.4.o.E.4XD.[  .{.sXmXmXmXdX,X,X>X>Xx.x.x.j.VXKX7XW.:.B { k :X",
"&X9XwX@X0X&X'.K.U.U.#X#X%X;X.XL.8XyXl.( b y 4 7 7 g 7 5 b M 5 y b m ! ! P C.m.[ ! b b h j u 2 4 2 3 u z 5 - e :.~.HX4XQ.hXhX<XAX",
"}.[.gXwX&XU.f.f.a.S.Z.D. XtXeX8X-XtXrXXXN.r.%.@.@.! ~ @.X. .| { H X. .>.V.C.V.m._.+X(.c.x.,X,X5X1X6XuXwX3XW.;.:.:.v f ,XJXDXVXhX",
"|.oX3XuXJ.F.U.'.'.'.'.U.*XiX%XI.S.S.S.I.Y.#X%X;X-X$XP.D.Z.#.&.[ [ +.H.(.r.@.+.#.{.MXnXuXwX9X{.l.u...@.8.M.XX!.OX{.|.>XFXDXDX,XD ",
"<XoX.X7X-X'.].@X$X$X;X$X#X&XtX%XK.Z.s.s.s.S.I.Y.&X#X&X;X%X%XE.e.r.C.P.M.0.r.(.N.M.$.H.6.n c n M b n ,.!.6.N.B.6.6.N.F.f.b.).>X1X",
"b.b.[.OXvX*X*X&X&X&X@X@X#XU. X$X-XeX$XY.U.U.#X$X#X$X;XeXrXtXNXSXMXnXmXaXtXeXeX;X;XD.m.P.2XbXnXzXzXzXnXvXaXbXzXzXwX*X[.[.[.g.g.g.",
"*X0X9XyXMXMXmXyX-X-X*X;X&X&X$X%X%X-XtXyX;X#XJ.J.D.J.J.J.H.N.K.g.'.8XNXBXtXeXeX=XeXeXI.I.eXtXaXzXzXzXuXnXyX8X8X-X*X&X].].@X[.n.n.",
"}.}.9XwXxXMXVXAXmXpXpXpXiX8X*X&X&X&XD.7._.XXP.F.F.F.$.@.( ! ! ! [ ] 7.OXyXrXtXyX-X{.!.XX-X-X8X-X&X X'.<XXX$.9.9.F.F.F.g.g.y.3.2.",
"( ~  .g.].9XcX3X6XbXpXpXiX8X=X'.L.9.2.@.+.5.!.uXuXoX%.N.(. . .%.D.7._ ! +.L.H.S.#.^ s.#.O.+.+.O.~ ! b m o.[ [ [ m ] ..+.O.~ n ..",
"u.u.=.( b x *.' ' C.E.6. .] | M h h h x b b N J H J ' P  .o.%.N.pXvX8X'.D.#.m.`..XOXyX.Xr.4...X. .+.%.5.^.bXxX9X}.}.b.;.C z 8 u ",
"6 4 2 2 3 2 3 e 5 u x J m b x h x x x x i e 5 3 3 3 5 5 5 5 y c L >.l..XoXOX+XyXvXnXMXnXmXxXpXqX9X9XqXwX9X7X^./.Q.1.v 4 1 * * : ",
"0 t 0 ; - - - - - 3 - 3 t v N x e 3 3 2 3 2 3 5 7 u u s u z u j y 5 5 h b c n j j h k b n Z *.o.} ( B j h e 0 v G U E 6.( -.y.g.",
"- @ $ 0 t a & * & 2 2 2 2 2 3 u v 5 1 2 1 4 5 7 h L ;.I D D D D D C B c v V n C Z c B z B z i y y d N y 3 3 p n 1.Q.R.w.$.7.g.g.",
"6 = @ ; > t 3 & & 2 2 2 3 5 5 i K N 5 j j n V } .. .%.%.@. . .[ ..2.=.X.| | ..-.=.{ } *.*.} c i j y i h L x h l.e.B.`.:XwX|.n.:X",
"5.t.3.0.9.4.2.f.9.r.0.0.9.8.8.f.f.a.S.J.J.J.J.I.D.I.I.I.I.I.I.I.I.I.U.Y. X XK.H._.=X_. XM.+.N.-Xw.<X^.L 1.H 5 5 y 5 :.n.hXSXVXVX",
"@.i.d.d.d.s.d.d.G.eXs.d.d.p.p.p.p.p.D.U.i.) i.i.p.p.p.A.A.A.A.A.A.Z.Z.I.XXK.J.=XtX;X#XV.7.k @.F.,.}.1X<X6...y.).>X1X,XgXhXVXhXhX",
"^ ^ ^ ) ) ) i.) @.oXS.O.O.i.O.i.i.i.p.J.s.i.i.p.i.p.p.p.p.A.A.A.Z.Z.Z.Z.XX-X-XXXD.S.U.P..X(.7.@.+.%.@.9.F.8.t.W.1X0XgXMXVXVX1Xq.",
"_ _ _ ) ) ) O.O.O..X$Xp.i.p.s.s.a.I.S.D.=XI.p.s.p.p.p.A.A.A.A.Z.I.I.I.Y.P.+XtXD.J.'.'.#X$XOX[.7.d.F.2.!  .=.g.g.2.3.b.).n.1XzXMX",
") ^ ) ) ) ) O.O.i.`.-Xf.f.D.D.J.J.F.F.D.F.&XXXI.S.S.S.Z.S.Z.S.Z.S.Z.S.D.Y.%XbXtX@X&X@X@X].@X$.^ %.@.] 7.@.@.y.( _ @.b.|.<X<X7XgX"
};
